%TF.GenerationSoftware,KiCad,Pcbnew,9.0.3*%
%TF.CreationDate,2025-11-22T12:31:01+05:30*%
%TF.ProjectId,multilayer trial,6d756c74-696c-4617-9965-722074726961,rev?*%
%TF.SameCoordinates,Original*%
%TF.FileFunction,Copper,L3,Inr*%
%TF.FilePolarity,Positive*%
%FSLAX46Y46*%
G04 Gerber Fmt 4.6, Leading zero omitted, Abs format (unit mm)*
G04 Created by KiCad (PCBNEW 9.0.3) date 2025-11-22 12:31:01*
%MOMM*%
%LPD*%
G01*
G04 APERTURE LIST*
%TA.AperFunction,ComponentPad*%
%ADD10C,2.000000*%
%TD*%
%TA.AperFunction,ComponentPad*%
%ADD11R,1.700000X1.700000*%
%TD*%
%TA.AperFunction,ComponentPad*%
%ADD12C,1.700000*%
%TD*%
G04 APERTURE END LIST*
D10*
%TO.N,GNDD*%
%TO.C,SW1*%
X113000000Y-82900000D03*
X119500000Y-82900000D03*
%TO.N,Net-(U1-~{RESET}{slash}PB5)*%
X113000000Y-87400000D03*
X119500000Y-87400000D03*
%TD*%
D11*
%TO.N,Net-(J2-Pin_1)*%
%TO.C,J2*%
X108200000Y-96740000D03*
D12*
%TO.N,Net-(J2-Pin_2)*%
X108200000Y-94200000D03*
%TO.N,Net-(J2-Pin_3)*%
X108200000Y-91660000D03*
%TO.N,Net-(J2-Pin_4)*%
X108200000Y-89120000D03*
%TO.N,Net-(J2-Pin_5)*%
X108200000Y-86580000D03*
%TD*%
D11*
%TO.N,GNDD*%
%TO.C,J1*%
X126800000Y-92325000D03*
D12*
%TO.N,5VD*%
X126800000Y-94865000D03*
%TD*%
%TA.AperFunction,Conductor*%
%TO.N,5VD*%
G36*
X129842539Y-80320185D02*
G01*
X129888294Y-80372989D01*
X129899500Y-80424500D01*
X129899500Y-101375500D01*
X129879815Y-101442539D01*
X129827011Y-101488294D01*
X129775500Y-101499500D01*
X104824500Y-101499500D01*
X104757461Y-101479815D01*
X104711706Y-101427011D01*
X104700500Y-101375500D01*
X104700500Y-86473713D01*
X106849500Y-86473713D01*
X106849500Y-86686287D01*
X106882754Y-86896243D01*
X106932268Y-87048632D01*
X106948444Y-87098414D01*
X107044951Y-87287820D01*
X107169890Y-87459786D01*
X107320213Y-87610109D01*
X107492182Y-87735050D01*
X107500946Y-87739516D01*
X107551742Y-87787491D01*
X107568536Y-87855312D01*
X107545998Y-87921447D01*
X107500946Y-87960484D01*
X107492182Y-87964949D01*
X107320213Y-88089890D01*
X107169890Y-88240213D01*
X107044951Y-88412179D01*
X106948444Y-88601585D01*
X106882753Y-88803760D01*
X106849500Y-89013713D01*
X106849500Y-89226286D01*
X106882753Y-89436239D01*
X106948444Y-89638414D01*
X107044951Y-89827820D01*
X107169890Y-89999786D01*
X107320213Y-90150109D01*
X107492182Y-90275050D01*
X107500946Y-90279516D01*
X107551742Y-90327491D01*
X107568536Y-90395312D01*
X107545998Y-90461447D01*
X107500946Y-90500484D01*
X107492182Y-90504949D01*
X107320213Y-90629890D01*
X107169890Y-90780213D01*
X107044951Y-90952179D01*
X106948444Y-91141585D01*
X106882753Y-91343760D01*
X106849500Y-91553713D01*
X106849500Y-91766286D01*
X106882753Y-91976239D01*
X106948444Y-92178414D01*
X107044951Y-92367820D01*
X107169890Y-92539786D01*
X107320213Y-92690109D01*
X107492182Y-92815050D01*
X107500946Y-92819516D01*
X107551742Y-92867491D01*
X107568536Y-92935312D01*
X107545998Y-93001447D01*
X107500946Y-93040484D01*
X107492182Y-93044949D01*
X107320213Y-93169890D01*
X107169890Y-93320213D01*
X107044951Y-93492179D01*
X106948444Y-93681585D01*
X106882753Y-93883760D01*
X106849500Y-94093713D01*
X106849500Y-94306287D01*
X106882754Y-94516243D01*
X106947518Y-94715566D01*
X106948444Y-94718414D01*
X107044951Y-94907820D01*
X107169890Y-95079786D01*
X107283430Y-95193326D01*
X107316915Y-95254649D01*
X107311931Y-95324341D01*
X107270059Y-95380274D01*
X107239083Y-95397189D01*
X107107669Y-95446203D01*
X107107664Y-95446206D01*
X106992455Y-95532452D01*
X106992452Y-95532455D01*
X106906206Y-95647664D01*
X106906202Y-95647671D01*
X106855908Y-95782517D01*
X106849501Y-95842116D01*
X106849501Y-95842123D01*
X106849500Y-95842135D01*
X106849500Y-97637870D01*
X106849501Y-97637876D01*
X106855908Y-97697483D01*
X106906202Y-97832328D01*
X106906206Y-97832335D01*
X106992452Y-97947544D01*
X106992455Y-97947547D01*
X107107664Y-98033793D01*
X107107671Y-98033797D01*
X107242517Y-98084091D01*
X107242516Y-98084091D01*
X107249444Y-98084835D01*
X107302127Y-98090500D01*
X109097872Y-98090499D01*
X109157483Y-98084091D01*
X109292331Y-98033796D01*
X109407546Y-97947546D01*
X109493796Y-97832331D01*
X109544091Y-97697483D01*
X109550500Y-97637873D01*
X109550499Y-95842128D01*
X109544091Y-95782517D01*
X109493796Y-95647669D01*
X109493795Y-95647668D01*
X109493793Y-95647664D01*
X109407547Y-95532455D01*
X109407544Y-95532452D01*
X109292335Y-95446206D01*
X109292328Y-95446202D01*
X109160917Y-95397189D01*
X109104983Y-95355318D01*
X109080566Y-95289853D01*
X109095418Y-95221580D01*
X109116563Y-95193332D01*
X109230104Y-95079792D01*
X109355051Y-94907816D01*
X109451557Y-94718412D01*
X109517246Y-94516243D01*
X109550500Y-94306287D01*
X109550500Y-94093713D01*
X109517246Y-93883757D01*
X109451557Y-93681588D01*
X109355051Y-93492184D01*
X109355049Y-93492181D01*
X109355048Y-93492179D01*
X109230109Y-93320213D01*
X109079786Y-93169890D01*
X108907820Y-93044951D01*
X108907115Y-93044591D01*
X108899054Y-93040485D01*
X108848259Y-92992512D01*
X108831463Y-92924692D01*
X108853999Y-92858556D01*
X108899054Y-92819515D01*
X108907816Y-92815051D01*
X108929789Y-92799086D01*
X109079786Y-92690109D01*
X109079788Y-92690106D01*
X109079792Y-92690104D01*
X109230104Y-92539792D01*
X109230106Y-92539788D01*
X109230109Y-92539786D01*
X109355048Y-92367820D01*
X109355047Y-92367820D01*
X109355051Y-92367816D01*
X109451557Y-92178412D01*
X109517246Y-91976243D01*
X109550500Y-91766287D01*
X109550500Y-91553713D01*
X109530452Y-91427135D01*
X125449500Y-91427135D01*
X125449500Y-93222870D01*
X125449501Y-93222876D01*
X125455908Y-93282483D01*
X125506202Y-93417328D01*
X125506206Y-93417335D01*
X125592452Y-93532544D01*
X125592455Y-93532547D01*
X125707664Y-93618793D01*
X125707671Y-93618797D01*
X125752618Y-93635561D01*
X125842517Y-93669091D01*
X125902127Y-93675500D01*
X125912685Y-93675499D01*
X125979723Y-93695179D01*
X126000372Y-93711818D01*
X126670591Y-94382037D01*
X126607007Y-94399075D01*
X126492993Y-94464901D01*
X126399901Y-94557993D01*
X126334075Y-94672007D01*
X126317037Y-94735591D01*
X125684728Y-94103282D01*
X125684727Y-94103282D01*
X125645380Y-94157439D01*
X125548904Y-94346782D01*
X125483242Y-94548869D01*
X125483242Y-94548872D01*
X125450000Y-94758753D01*
X125450000Y-94971246D01*
X125483242Y-95181127D01*
X125483242Y-95181130D01*
X125548904Y-95383217D01*
X125645375Y-95572550D01*
X125684728Y-95626716D01*
X126317037Y-94994408D01*
X126334075Y-95057993D01*
X126399901Y-95172007D01*
X126492993Y-95265099D01*
X126607007Y-95330925D01*
X126670590Y-95347962D01*
X126038282Y-95980269D01*
X126038282Y-95980270D01*
X126092449Y-96019624D01*
X126281782Y-96116095D01*
X126483870Y-96181757D01*
X126693754Y-96215000D01*
X126906246Y-96215000D01*
X127116127Y-96181757D01*
X127116130Y-96181757D01*
X127318217Y-96116095D01*
X127507554Y-96019622D01*
X127561716Y-95980270D01*
X127561717Y-95980270D01*
X126929408Y-95347962D01*
X126992993Y-95330925D01*
X127107007Y-95265099D01*
X127200099Y-95172007D01*
X127265925Y-95057993D01*
X127282962Y-94994409D01*
X127915270Y-95626717D01*
X127915270Y-95626716D01*
X127954622Y-95572554D01*
X128051095Y-95383217D01*
X128116757Y-95181130D01*
X128116757Y-95181127D01*
X128150000Y-94971246D01*
X128150000Y-94758753D01*
X128116757Y-94548872D01*
X128116757Y-94548869D01*
X128051095Y-94346782D01*
X127954624Y-94157449D01*
X127915270Y-94103282D01*
X127915269Y-94103282D01*
X127282962Y-94735590D01*
X127265925Y-94672007D01*
X127200099Y-94557993D01*
X127107007Y-94464901D01*
X126992993Y-94399075D01*
X126929409Y-94382037D01*
X127599627Y-93711818D01*
X127660950Y-93678333D01*
X127687307Y-93675499D01*
X127697872Y-93675499D01*
X127757483Y-93669091D01*
X127892331Y-93618796D01*
X128007546Y-93532546D01*
X128093796Y-93417331D01*
X128144091Y-93282483D01*
X128150500Y-93222873D01*
X128150499Y-91427128D01*
X128144091Y-91367517D01*
X128135230Y-91343760D01*
X128093797Y-91232671D01*
X128093793Y-91232664D01*
X128007547Y-91117455D01*
X128007544Y-91117452D01*
X127892335Y-91031206D01*
X127892328Y-91031202D01*
X127757482Y-90980908D01*
X127757483Y-90980908D01*
X127697883Y-90974501D01*
X127697881Y-90974500D01*
X127697873Y-90974500D01*
X127697864Y-90974500D01*
X125902129Y-90974500D01*
X125902123Y-90974501D01*
X125842516Y-90980908D01*
X125707671Y-91031202D01*
X125707664Y-91031206D01*
X125592455Y-91117452D01*
X125592452Y-91117455D01*
X125506206Y-91232664D01*
X125506202Y-91232671D01*
X125455908Y-91367517D01*
X125449501Y-91427116D01*
X125449501Y-91427123D01*
X125449500Y-91427135D01*
X109530452Y-91427135D01*
X109517246Y-91343757D01*
X109451557Y-91141588D01*
X109355051Y-90952184D01*
X109355049Y-90952181D01*
X109355048Y-90952179D01*
X109230109Y-90780213D01*
X109079786Y-90629890D01*
X108907820Y-90504951D01*
X108907115Y-90504591D01*
X108899054Y-90500485D01*
X108848259Y-90452512D01*
X108831463Y-90384692D01*
X108853999Y-90318556D01*
X108899054Y-90279515D01*
X108907816Y-90275051D01*
X108929789Y-90259086D01*
X109079786Y-90150109D01*
X109079788Y-90150106D01*
X109079792Y-90150104D01*
X109230104Y-89999792D01*
X109230106Y-89999788D01*
X109230109Y-89999786D01*
X109355048Y-89827820D01*
X109355047Y-89827820D01*
X109355051Y-89827816D01*
X109451557Y-89638412D01*
X109517246Y-89436243D01*
X109550500Y-89226287D01*
X109550500Y-89013713D01*
X109517246Y-88803757D01*
X109451557Y-88601588D01*
X109355051Y-88412184D01*
X109355049Y-88412181D01*
X109355048Y-88412179D01*
X109230109Y-88240213D01*
X109079786Y-88089890D01*
X108907820Y-87964951D01*
X108907115Y-87964591D01*
X108899054Y-87960485D01*
X108848259Y-87912512D01*
X108831463Y-87844692D01*
X108853999Y-87778556D01*
X108899054Y-87739515D01*
X108907816Y-87735051D01*
X108929789Y-87719086D01*
X109079786Y-87610109D01*
X109079788Y-87610106D01*
X109079792Y-87610104D01*
X109230104Y-87459792D01*
X109230106Y-87459788D01*
X109230109Y-87459786D01*
X109355050Y-87287817D01*
X109358064Y-87281902D01*
X111499500Y-87281902D01*
X111499500Y-87518097D01*
X111536446Y-87751368D01*
X111609433Y-87975996D01*
X111716657Y-88186433D01*
X111855483Y-88377510D01*
X112022490Y-88544517D01*
X112213567Y-88683343D01*
X112312991Y-88734002D01*
X112424003Y-88790566D01*
X112424005Y-88790566D01*
X112424008Y-88790568D01*
X112464609Y-88803760D01*
X112648631Y-88863553D01*
X112881903Y-88900500D01*
X112881908Y-88900500D01*
X113118097Y-88900500D01*
X113351368Y-88863553D01*
X113575992Y-88790568D01*
X113786433Y-88683343D01*
X113977510Y-88544517D01*
X114144517Y-88377510D01*
X114283343Y-88186433D01*
X114390568Y-87975992D01*
X114463553Y-87751368D01*
X114465430Y-87739516D01*
X114500500Y-87518097D01*
X114500500Y-87281902D01*
X117999500Y-87281902D01*
X117999500Y-87518097D01*
X118036446Y-87751368D01*
X118109433Y-87975996D01*
X118216657Y-88186433D01*
X118355483Y-88377510D01*
X118522490Y-88544517D01*
X118713567Y-88683343D01*
X118812991Y-88734002D01*
X118924003Y-88790566D01*
X118924005Y-88790566D01*
X118924008Y-88790568D01*
X118964609Y-88803760D01*
X119148631Y-88863553D01*
X119381903Y-88900500D01*
X119381908Y-88900500D01*
X119618097Y-88900500D01*
X119851368Y-88863553D01*
X120075992Y-88790568D01*
X120286433Y-88683343D01*
X120477510Y-88544517D01*
X120644517Y-88377510D01*
X120783343Y-88186433D01*
X120890568Y-87975992D01*
X120963553Y-87751368D01*
X120965430Y-87739516D01*
X121000500Y-87518097D01*
X121000500Y-87281902D01*
X120963553Y-87048631D01*
X120890566Y-86824003D01*
X120783342Y-86613566D01*
X120644517Y-86422490D01*
X120477510Y-86255483D01*
X120286433Y-86116657D01*
X120075996Y-86009433D01*
X119851368Y-85936446D01*
X119618097Y-85899500D01*
X119618092Y-85899500D01*
X119381908Y-85899500D01*
X119381903Y-85899500D01*
X119148631Y-85936446D01*
X118924003Y-86009433D01*
X118713566Y-86116657D01*
X118604550Y-86195862D01*
X118522490Y-86255483D01*
X118522488Y-86255485D01*
X118522487Y-86255485D01*
X118355485Y-86422487D01*
X118355485Y-86422488D01*
X118355483Y-86422490D01*
X118318267Y-86473713D01*
X118216657Y-86613566D01*
X118109433Y-86824003D01*
X118036446Y-87048631D01*
X117999500Y-87281902D01*
X114500500Y-87281902D01*
X114463553Y-87048631D01*
X114390566Y-86824003D01*
X114283342Y-86613566D01*
X114144517Y-86422490D01*
X113977510Y-86255483D01*
X113786433Y-86116657D01*
X113575996Y-86009433D01*
X113351368Y-85936446D01*
X113118097Y-85899500D01*
X113118092Y-85899500D01*
X112881908Y-85899500D01*
X112881903Y-85899500D01*
X112648631Y-85936446D01*
X112424003Y-86009433D01*
X112213566Y-86116657D01*
X112104550Y-86195862D01*
X112022490Y-86255483D01*
X112022488Y-86255485D01*
X112022487Y-86255485D01*
X111855485Y-86422487D01*
X111855485Y-86422488D01*
X111855483Y-86422490D01*
X111818267Y-86473713D01*
X111716657Y-86613566D01*
X111609433Y-86824003D01*
X111536446Y-87048631D01*
X111499500Y-87281902D01*
X109358064Y-87281902D01*
X109389227Y-87220742D01*
X109389227Y-87220741D01*
X109451557Y-87098412D01*
X109517246Y-86896243D01*
X109550500Y-86686287D01*
X109550500Y-86473713D01*
X109517246Y-86263757D01*
X109451557Y-86061588D01*
X109355051Y-85872184D01*
X109355049Y-85872181D01*
X109355048Y-85872179D01*
X109230109Y-85700213D01*
X109079786Y-85549890D01*
X108907820Y-85424951D01*
X108718414Y-85328444D01*
X108718413Y-85328443D01*
X108718412Y-85328443D01*
X108516243Y-85262754D01*
X108516241Y-85262753D01*
X108516240Y-85262753D01*
X108354957Y-85237208D01*
X108306287Y-85229500D01*
X108093713Y-85229500D01*
X108045042Y-85237208D01*
X107883760Y-85262753D01*
X107681585Y-85328444D01*
X107492179Y-85424951D01*
X107320213Y-85549890D01*
X107169890Y-85700213D01*
X107044951Y-85872179D01*
X106948444Y-86061585D01*
X106882753Y-86263760D01*
X106857613Y-86422487D01*
X106849500Y-86473713D01*
X104700500Y-86473713D01*
X104700500Y-82781902D01*
X111499500Y-82781902D01*
X111499500Y-83018097D01*
X111536446Y-83251368D01*
X111609433Y-83475996D01*
X111716657Y-83686433D01*
X111855483Y-83877510D01*
X112022490Y-84044517D01*
X112213567Y-84183343D01*
X112312991Y-84234002D01*
X112424003Y-84290566D01*
X112424005Y-84290566D01*
X112424008Y-84290568D01*
X112544412Y-84329689D01*
X112648631Y-84363553D01*
X112881903Y-84400500D01*
X112881908Y-84400500D01*
X113118097Y-84400500D01*
X113351368Y-84363553D01*
X113575992Y-84290568D01*
X113786433Y-84183343D01*
X113977510Y-84044517D01*
X114144517Y-83877510D01*
X114283343Y-83686433D01*
X114390568Y-83475992D01*
X114463553Y-83251368D01*
X114500500Y-83018097D01*
X114500500Y-82781902D01*
X117999500Y-82781902D01*
X117999500Y-83018097D01*
X118036446Y-83251368D01*
X118109433Y-83475996D01*
X118216657Y-83686433D01*
X118355483Y-83877510D01*
X118522490Y-84044517D01*
X118713567Y-84183343D01*
X118812991Y-84234002D01*
X118924003Y-84290566D01*
X118924005Y-84290566D01*
X118924008Y-84290568D01*
X119044412Y-84329689D01*
X119148631Y-84363553D01*
X119381903Y-84400500D01*
X119381908Y-84400500D01*
X119618097Y-84400500D01*
X119851368Y-84363553D01*
X120075992Y-84290568D01*
X120286433Y-84183343D01*
X120477510Y-84044517D01*
X120644517Y-83877510D01*
X120783343Y-83686433D01*
X120890568Y-83475992D01*
X120963553Y-83251368D01*
X121000500Y-83018097D01*
X121000500Y-82781902D01*
X120963553Y-82548631D01*
X120890566Y-82324003D01*
X120783342Y-82113566D01*
X120644517Y-81922490D01*
X120477510Y-81755483D01*
X120286433Y-81616657D01*
X120075996Y-81509433D01*
X119851368Y-81436446D01*
X119618097Y-81399500D01*
X119618092Y-81399500D01*
X119381908Y-81399500D01*
X119381903Y-81399500D01*
X119148631Y-81436446D01*
X118924003Y-81509433D01*
X118713566Y-81616657D01*
X118604550Y-81695862D01*
X118522490Y-81755483D01*
X118522488Y-81755485D01*
X118522487Y-81755485D01*
X118355485Y-81922487D01*
X118355485Y-81922488D01*
X118355483Y-81922490D01*
X118295862Y-82004550D01*
X118216657Y-82113566D01*
X118109433Y-82324003D01*
X118036446Y-82548631D01*
X117999500Y-82781902D01*
X114500500Y-82781902D01*
X114463553Y-82548631D01*
X114390566Y-82324003D01*
X114283342Y-82113566D01*
X114144517Y-81922490D01*
X113977510Y-81755483D01*
X113786433Y-81616657D01*
X113575996Y-81509433D01*
X113351368Y-81436446D01*
X113118097Y-81399500D01*
X113118092Y-81399500D01*
X112881908Y-81399500D01*
X112881903Y-81399500D01*
X112648631Y-81436446D01*
X112424003Y-81509433D01*
X112213566Y-81616657D01*
X112104550Y-81695862D01*
X112022490Y-81755483D01*
X112022488Y-81755485D01*
X112022487Y-81755485D01*
X111855485Y-81922487D01*
X111855485Y-81922488D01*
X111855483Y-81922490D01*
X111795862Y-82004550D01*
X111716657Y-82113566D01*
X111609433Y-82324003D01*
X111536446Y-82548631D01*
X111499500Y-82781902D01*
X104700500Y-82781902D01*
X104700500Y-80424500D01*
X104720185Y-80357461D01*
X104772989Y-80311706D01*
X104824500Y-80300500D01*
X129775500Y-80300500D01*
X129842539Y-80320185D01*
G37*
%TD.AperFunction*%
%TD*%
M02*
