%TF.GenerationSoftware,KiCad,Pcbnew,9.0.3*%
%TF.CreationDate,2025-11-22T12:31:02+05:30*%
%TF.ProjectId,multilayer trial,6d756c74-696c-4617-9965-722074726961,rev?*%
%TF.SameCoordinates,Original*%
%TF.FileFunction,Legend,Top*%
%TF.FilePolarity,Positive*%
%FSLAX46Y46*%
G04 Gerber Fmt 4.6, Leading zero omitted, Abs format (unit mm)*
G04 Created by KiCad (PCBNEW 9.0.3) date 2025-11-22 12:31:02*
%MOMM*%
%LPD*%
G01*
G04 APERTURE LIST*
%ADD10C,0.100000*%
%ADD11C,0.150000*%
%ADD12C,0.120000*%
G04 APERTURE END LIST*
D10*
X116827693Y-101272419D02*
X116256265Y-101272419D01*
X116541979Y-101272419D02*
X116541979Y-100272419D01*
X116541979Y-100272419D02*
X116446741Y-100415276D01*
X116446741Y-100415276D02*
X116351503Y-100510514D01*
X116351503Y-100510514D02*
X116256265Y-100558133D01*
X117208646Y-101224800D02*
X117303884Y-101272419D01*
X117303884Y-101272419D02*
X117494360Y-101272419D01*
X117494360Y-101272419D02*
X117589598Y-101224800D01*
X117589598Y-101224800D02*
X117637217Y-101129561D01*
X117637217Y-101129561D02*
X117637217Y-101081942D01*
X117637217Y-101081942D02*
X117589598Y-100986704D01*
X117589598Y-100986704D02*
X117494360Y-100939085D01*
X117494360Y-100939085D02*
X117351503Y-100939085D01*
X117351503Y-100939085D02*
X117256265Y-100891466D01*
X117256265Y-100891466D02*
X117208646Y-100796228D01*
X117208646Y-100796228D02*
X117208646Y-100748609D01*
X117208646Y-100748609D02*
X117256265Y-100653371D01*
X117256265Y-100653371D02*
X117351503Y-100605752D01*
X117351503Y-100605752D02*
X117494360Y-100605752D01*
X117494360Y-100605752D02*
X117589598Y-100653371D01*
X117922932Y-100605752D02*
X118303884Y-100605752D01*
X118065789Y-100272419D02*
X118065789Y-101129561D01*
X118065789Y-101129561D02*
X118113408Y-101224800D01*
X118113408Y-101224800D02*
X118208646Y-101272419D01*
X118208646Y-101272419D02*
X118303884Y-101272419D01*
X119399123Y-101272419D02*
X119399123Y-100605752D01*
X119399123Y-100700990D02*
X119446742Y-100653371D01*
X119446742Y-100653371D02*
X119541980Y-100605752D01*
X119541980Y-100605752D02*
X119684837Y-100605752D01*
X119684837Y-100605752D02*
X119780075Y-100653371D01*
X119780075Y-100653371D02*
X119827694Y-100748609D01*
X119827694Y-100748609D02*
X119827694Y-101272419D01*
X119827694Y-100748609D02*
X119875313Y-100653371D01*
X119875313Y-100653371D02*
X119970551Y-100605752D01*
X119970551Y-100605752D02*
X120113408Y-100605752D01*
X120113408Y-100605752D02*
X120208647Y-100653371D01*
X120208647Y-100653371D02*
X120256266Y-100748609D01*
X120256266Y-100748609D02*
X120256266Y-101272419D01*
X121161027Y-100605752D02*
X121161027Y-101272419D01*
X120732456Y-100605752D02*
X120732456Y-101129561D01*
X120732456Y-101129561D02*
X120780075Y-101224800D01*
X120780075Y-101224800D02*
X120875313Y-101272419D01*
X120875313Y-101272419D02*
X121018170Y-101272419D01*
X121018170Y-101272419D02*
X121113408Y-101224800D01*
X121113408Y-101224800D02*
X121161027Y-101177180D01*
X121780075Y-101272419D02*
X121684837Y-101224800D01*
X121684837Y-101224800D02*
X121637218Y-101129561D01*
X121637218Y-101129561D02*
X121637218Y-100272419D01*
X122018171Y-100605752D02*
X122399123Y-100605752D01*
X122161028Y-100272419D02*
X122161028Y-101129561D01*
X122161028Y-101129561D02*
X122208647Y-101224800D01*
X122208647Y-101224800D02*
X122303885Y-101272419D01*
X122303885Y-101272419D02*
X122399123Y-101272419D01*
X122732457Y-101272419D02*
X122732457Y-100605752D01*
X122732457Y-100272419D02*
X122684838Y-100320038D01*
X122684838Y-100320038D02*
X122732457Y-100367657D01*
X122732457Y-100367657D02*
X122780076Y-100320038D01*
X122780076Y-100320038D02*
X122732457Y-100272419D01*
X122732457Y-100272419D02*
X122732457Y-100367657D01*
X123351504Y-101272419D02*
X123256266Y-101224800D01*
X123256266Y-101224800D02*
X123208647Y-101129561D01*
X123208647Y-101129561D02*
X123208647Y-100272419D01*
X124161028Y-101272419D02*
X124161028Y-100748609D01*
X124161028Y-100748609D02*
X124113409Y-100653371D01*
X124113409Y-100653371D02*
X124018171Y-100605752D01*
X124018171Y-100605752D02*
X123827695Y-100605752D01*
X123827695Y-100605752D02*
X123732457Y-100653371D01*
X124161028Y-101224800D02*
X124065790Y-101272419D01*
X124065790Y-101272419D02*
X123827695Y-101272419D01*
X123827695Y-101272419D02*
X123732457Y-101224800D01*
X123732457Y-101224800D02*
X123684838Y-101129561D01*
X123684838Y-101129561D02*
X123684838Y-101034323D01*
X123684838Y-101034323D02*
X123732457Y-100939085D01*
X123732457Y-100939085D02*
X123827695Y-100891466D01*
X123827695Y-100891466D02*
X124065790Y-100891466D01*
X124065790Y-100891466D02*
X124161028Y-100843847D01*
X124541981Y-100605752D02*
X124780076Y-101272419D01*
X125018171Y-100605752D02*
X124780076Y-101272419D01*
X124780076Y-101272419D02*
X124684838Y-101510514D01*
X124684838Y-101510514D02*
X124637219Y-101558133D01*
X124637219Y-101558133D02*
X124541981Y-101605752D01*
X125780076Y-101224800D02*
X125684838Y-101272419D01*
X125684838Y-101272419D02*
X125494362Y-101272419D01*
X125494362Y-101272419D02*
X125399124Y-101224800D01*
X125399124Y-101224800D02*
X125351505Y-101129561D01*
X125351505Y-101129561D02*
X125351505Y-100748609D01*
X125351505Y-100748609D02*
X125399124Y-100653371D01*
X125399124Y-100653371D02*
X125494362Y-100605752D01*
X125494362Y-100605752D02*
X125684838Y-100605752D01*
X125684838Y-100605752D02*
X125780076Y-100653371D01*
X125780076Y-100653371D02*
X125827695Y-100748609D01*
X125827695Y-100748609D02*
X125827695Y-100843847D01*
X125827695Y-100843847D02*
X125351505Y-100939085D01*
X126256267Y-101272419D02*
X126256267Y-100605752D01*
X126256267Y-100796228D02*
X126303886Y-100700990D01*
X126303886Y-100700990D02*
X126351505Y-100653371D01*
X126351505Y-100653371D02*
X126446743Y-100605752D01*
X126446743Y-100605752D02*
X126541981Y-100605752D01*
X127637220Y-100605752D02*
X127637220Y-101605752D01*
X127637220Y-100653371D02*
X127732458Y-100605752D01*
X127732458Y-100605752D02*
X127922934Y-100605752D01*
X127922934Y-100605752D02*
X128018172Y-100653371D01*
X128018172Y-100653371D02*
X128065791Y-100700990D01*
X128065791Y-100700990D02*
X128113410Y-100796228D01*
X128113410Y-100796228D02*
X128113410Y-101081942D01*
X128113410Y-101081942D02*
X128065791Y-101177180D01*
X128065791Y-101177180D02*
X128018172Y-101224800D01*
X128018172Y-101224800D02*
X127922934Y-101272419D01*
X127922934Y-101272419D02*
X127732458Y-101272419D01*
X127732458Y-101272419D02*
X127637220Y-101224800D01*
X128970553Y-101224800D02*
X128875315Y-101272419D01*
X128875315Y-101272419D02*
X128684839Y-101272419D01*
X128684839Y-101272419D02*
X128589601Y-101224800D01*
X128589601Y-101224800D02*
X128541982Y-101177180D01*
X128541982Y-101177180D02*
X128494363Y-101081942D01*
X128494363Y-101081942D02*
X128494363Y-100796228D01*
X128494363Y-100796228D02*
X128541982Y-100700990D01*
X128541982Y-100700990D02*
X128589601Y-100653371D01*
X128589601Y-100653371D02*
X128684839Y-100605752D01*
X128684839Y-100605752D02*
X128875315Y-100605752D01*
X128875315Y-100605752D02*
X128970553Y-100653371D01*
X129399125Y-101272419D02*
X129399125Y-100272419D01*
X129399125Y-100653371D02*
X129494363Y-100605752D01*
X129494363Y-100605752D02*
X129684839Y-100605752D01*
X129684839Y-100605752D02*
X129780077Y-100653371D01*
X129780077Y-100653371D02*
X129827696Y-100700990D01*
X129827696Y-100700990D02*
X129875315Y-100796228D01*
X129875315Y-100796228D02*
X129875315Y-101081942D01*
X129875315Y-101081942D02*
X129827696Y-101177180D01*
X129827696Y-101177180D02*
X129780077Y-101224800D01*
X129780077Y-101224800D02*
X129684839Y-101272419D01*
X129684839Y-101272419D02*
X129494363Y-101272419D01*
X129494363Y-101272419D02*
X129399125Y-101224800D01*
D11*
X125458333Y-84729580D02*
X125410714Y-84777200D01*
X125410714Y-84777200D02*
X125267857Y-84824819D01*
X125267857Y-84824819D02*
X125172619Y-84824819D01*
X125172619Y-84824819D02*
X125029762Y-84777200D01*
X125029762Y-84777200D02*
X124934524Y-84681961D01*
X124934524Y-84681961D02*
X124886905Y-84586723D01*
X124886905Y-84586723D02*
X124839286Y-84396247D01*
X124839286Y-84396247D02*
X124839286Y-84253390D01*
X124839286Y-84253390D02*
X124886905Y-84062914D01*
X124886905Y-84062914D02*
X124934524Y-83967676D01*
X124934524Y-83967676D02*
X125029762Y-83872438D01*
X125029762Y-83872438D02*
X125172619Y-83824819D01*
X125172619Y-83824819D02*
X125267857Y-83824819D01*
X125267857Y-83824819D02*
X125410714Y-83872438D01*
X125410714Y-83872438D02*
X125458333Y-83920057D01*
X125839286Y-83920057D02*
X125886905Y-83872438D01*
X125886905Y-83872438D02*
X125982143Y-83824819D01*
X125982143Y-83824819D02*
X126220238Y-83824819D01*
X126220238Y-83824819D02*
X126315476Y-83872438D01*
X126315476Y-83872438D02*
X126363095Y-83920057D01*
X126363095Y-83920057D02*
X126410714Y-84015295D01*
X126410714Y-84015295D02*
X126410714Y-84110533D01*
X126410714Y-84110533D02*
X126363095Y-84253390D01*
X126363095Y-84253390D02*
X125791667Y-84824819D01*
X125791667Y-84824819D02*
X126410714Y-84824819D01*
X114916667Y-81307200D02*
X115059524Y-81354819D01*
X115059524Y-81354819D02*
X115297619Y-81354819D01*
X115297619Y-81354819D02*
X115392857Y-81307200D01*
X115392857Y-81307200D02*
X115440476Y-81259580D01*
X115440476Y-81259580D02*
X115488095Y-81164342D01*
X115488095Y-81164342D02*
X115488095Y-81069104D01*
X115488095Y-81069104D02*
X115440476Y-80973866D01*
X115440476Y-80973866D02*
X115392857Y-80926247D01*
X115392857Y-80926247D02*
X115297619Y-80878628D01*
X115297619Y-80878628D02*
X115107143Y-80831009D01*
X115107143Y-80831009D02*
X115011905Y-80783390D01*
X115011905Y-80783390D02*
X114964286Y-80735771D01*
X114964286Y-80735771D02*
X114916667Y-80640533D01*
X114916667Y-80640533D02*
X114916667Y-80545295D01*
X114916667Y-80545295D02*
X114964286Y-80450057D01*
X114964286Y-80450057D02*
X115011905Y-80402438D01*
X115011905Y-80402438D02*
X115107143Y-80354819D01*
X115107143Y-80354819D02*
X115345238Y-80354819D01*
X115345238Y-80354819D02*
X115488095Y-80402438D01*
X115821429Y-80354819D02*
X116059524Y-81354819D01*
X116059524Y-81354819D02*
X116250000Y-80640533D01*
X116250000Y-80640533D02*
X116440476Y-81354819D01*
X116440476Y-81354819D02*
X116678572Y-80354819D01*
X117583333Y-81354819D02*
X117011905Y-81354819D01*
X117297619Y-81354819D02*
X117297619Y-80354819D01*
X117297619Y-80354819D02*
X117202381Y-80497676D01*
X117202381Y-80497676D02*
X117107143Y-80592914D01*
X117107143Y-80592914D02*
X117011905Y-80640533D01*
X107866666Y-98574819D02*
X107866666Y-99289104D01*
X107866666Y-99289104D02*
X107819047Y-99431961D01*
X107819047Y-99431961D02*
X107723809Y-99527200D01*
X107723809Y-99527200D02*
X107580952Y-99574819D01*
X107580952Y-99574819D02*
X107485714Y-99574819D01*
X108295238Y-98670057D02*
X108342857Y-98622438D01*
X108342857Y-98622438D02*
X108438095Y-98574819D01*
X108438095Y-98574819D02*
X108676190Y-98574819D01*
X108676190Y-98574819D02*
X108771428Y-98622438D01*
X108771428Y-98622438D02*
X108819047Y-98670057D01*
X108819047Y-98670057D02*
X108866666Y-98765295D01*
X108866666Y-98765295D02*
X108866666Y-98860533D01*
X108866666Y-98860533D02*
X108819047Y-99003390D01*
X108819047Y-99003390D02*
X108247619Y-99574819D01*
X108247619Y-99574819D02*
X108866666Y-99574819D01*
X123058333Y-80929580D02*
X123010714Y-80977200D01*
X123010714Y-80977200D02*
X122867857Y-81024819D01*
X122867857Y-81024819D02*
X122772619Y-81024819D01*
X122772619Y-81024819D02*
X122629762Y-80977200D01*
X122629762Y-80977200D02*
X122534524Y-80881961D01*
X122534524Y-80881961D02*
X122486905Y-80786723D01*
X122486905Y-80786723D02*
X122439286Y-80596247D01*
X122439286Y-80596247D02*
X122439286Y-80453390D01*
X122439286Y-80453390D02*
X122486905Y-80262914D01*
X122486905Y-80262914D02*
X122534524Y-80167676D01*
X122534524Y-80167676D02*
X122629762Y-80072438D01*
X122629762Y-80072438D02*
X122772619Y-80024819D01*
X122772619Y-80024819D02*
X122867857Y-80024819D01*
X122867857Y-80024819D02*
X123010714Y-80072438D01*
X123010714Y-80072438D02*
X123058333Y-80120057D01*
X124010714Y-81024819D02*
X123439286Y-81024819D01*
X123725000Y-81024819D02*
X123725000Y-80024819D01*
X123725000Y-80024819D02*
X123629762Y-80167676D01*
X123629762Y-80167676D02*
X123534524Y-80262914D01*
X123534524Y-80262914D02*
X123439286Y-80310533D01*
X122858333Y-91284819D02*
X122525000Y-90808628D01*
X122286905Y-91284819D02*
X122286905Y-90284819D01*
X122286905Y-90284819D02*
X122667857Y-90284819D01*
X122667857Y-90284819D02*
X122763095Y-90332438D01*
X122763095Y-90332438D02*
X122810714Y-90380057D01*
X122810714Y-90380057D02*
X122858333Y-90475295D01*
X122858333Y-90475295D02*
X122858333Y-90618152D01*
X122858333Y-90618152D02*
X122810714Y-90713390D01*
X122810714Y-90713390D02*
X122763095Y-90761009D01*
X122763095Y-90761009D02*
X122667857Y-90808628D01*
X122667857Y-90808628D02*
X122286905Y-90808628D01*
X123810714Y-91284819D02*
X123239286Y-91284819D01*
X123525000Y-91284819D02*
X123525000Y-90284819D01*
X123525000Y-90284819D02*
X123429762Y-90427676D01*
X123429762Y-90427676D02*
X123334524Y-90522914D01*
X123334524Y-90522914D02*
X123239286Y-90570533D01*
X115038095Y-90654819D02*
X115038095Y-91464342D01*
X115038095Y-91464342D02*
X115085714Y-91559580D01*
X115085714Y-91559580D02*
X115133333Y-91607200D01*
X115133333Y-91607200D02*
X115228571Y-91654819D01*
X115228571Y-91654819D02*
X115419047Y-91654819D01*
X115419047Y-91654819D02*
X115514285Y-91607200D01*
X115514285Y-91607200D02*
X115561904Y-91559580D01*
X115561904Y-91559580D02*
X115609523Y-91464342D01*
X115609523Y-91464342D02*
X115609523Y-90654819D01*
X116609523Y-91654819D02*
X116038095Y-91654819D01*
X116323809Y-91654819D02*
X116323809Y-90654819D01*
X116323809Y-90654819D02*
X116228571Y-90797676D01*
X116228571Y-90797676D02*
X116133333Y-90892914D01*
X116133333Y-90892914D02*
X116038095Y-90940533D01*
X126466666Y-89399819D02*
X126466666Y-90114104D01*
X126466666Y-90114104D02*
X126419047Y-90256961D01*
X126419047Y-90256961D02*
X126323809Y-90352200D01*
X126323809Y-90352200D02*
X126180952Y-90399819D01*
X126180952Y-90399819D02*
X126085714Y-90399819D01*
X127466666Y-90399819D02*
X126895238Y-90399819D01*
X127180952Y-90399819D02*
X127180952Y-89399819D01*
X127180952Y-89399819D02*
X127085714Y-89542676D01*
X127085714Y-89542676D02*
X126990476Y-89637914D01*
X126990476Y-89637914D02*
X126895238Y-89685533D01*
D12*
%TO.C,C2*%
X125484420Y-85290000D02*
X125765580Y-85290000D01*
X125484420Y-86310000D02*
X125765580Y-86310000D01*
%TO.C,SW1*%
X112750000Y-84400000D02*
X112750000Y-85900000D01*
X114000000Y-88400000D02*
X118500000Y-88400000D01*
X118500000Y-81900000D02*
X114000000Y-81900000D01*
X119750000Y-85900000D02*
X119750000Y-84400000D01*
%TO.C,J2*%
X106820000Y-95470000D02*
X106820000Y-85200000D01*
X109580000Y-85200000D02*
X106820000Y-85200000D01*
X109580000Y-95470000D02*
X106820000Y-95470000D01*
X109580000Y-95470000D02*
X109580000Y-85200000D01*
X109580000Y-96740000D02*
X109580000Y-98120000D01*
X109580000Y-98120000D02*
X108200000Y-98120000D01*
%TO.C,C1*%
X123084420Y-81490000D02*
X123365580Y-81490000D01*
X123084420Y-82510000D02*
X123365580Y-82510000D01*
%TO.C,R1*%
X123262258Y-88877500D02*
X122787742Y-88877500D01*
X123262258Y-89922500D02*
X122787742Y-89922500D01*
%TO.C,U1*%
X115800000Y-92040000D02*
X113850000Y-92040000D01*
X115800000Y-92040000D02*
X117750000Y-92040000D01*
X115800000Y-97160000D02*
X113850000Y-97160000D01*
X115800000Y-97160000D02*
X117750000Y-97160000D01*
X113100000Y-92135000D02*
X112860000Y-91805000D01*
X113340000Y-91805000D01*
X113100000Y-92135000D01*
G36*
X113100000Y-92135000D02*
G01*
X112860000Y-91805000D01*
X113340000Y-91805000D01*
X113100000Y-92135000D01*
G37*
%TO.C,J1*%
X125420000Y-90945000D02*
X126800000Y-90945000D01*
X125420000Y-92325000D02*
X125420000Y-90945000D01*
X125420000Y-93595000D02*
X125420000Y-96245000D01*
X125420000Y-93595000D02*
X128180000Y-93595000D01*
X125420000Y-96245000D02*
X128180000Y-96245000D01*
X128180000Y-93595000D02*
X128180000Y-96245000D01*
%TD*%
M02*
