%TF.GenerationSoftware,KiCad,Pcbnew,9.0.3*%
%TF.CreationDate,2025-11-22T12:30:59+05:30*%
%TF.ProjectId,multilayer trial,6d756c74-696c-4617-9965-722074726961,rev?*%
%TF.SameCoordinates,Original*%
%TF.FileFunction,Drillmap*%
%TF.FilePolarity,Positive*%
%FSLAX45Y45*%
G04 Gerber Fmt 4.5, Leading zero omitted, Abs format (unit mm)*
G04 Created by KiCad (PCBNEW 9.0.3) date 2025-11-22 12:30:59*
%MOMM*%
%LPD*%
G01*
G04 APERTURE LIST*
%ADD10C,0.050000*%
%ADD11C,0.200000*%
%ADD12C,0.100000*%
%ADD13C,0.110000*%
G04 APERTURE END LIST*
D10*
X10420000Y-7980000D02*
X13040000Y-7980000D01*
X13040000Y-10200000D01*
X10420000Y-10200000D01*
X10420000Y-7980000D01*
D11*
D12*
X10770000Y-8608000D02*
X10870000Y-8708000D01*
X10870000Y-8608000D02*
X10770000Y-8708000D01*
X10770000Y-8862000D02*
X10870000Y-8962000D01*
X10870000Y-8862000D02*
X10770000Y-8962000D01*
X10770000Y-9116000D02*
X10870000Y-9216000D01*
X10870000Y-9116000D02*
X10770000Y-9216000D01*
X10770000Y-9370000D02*
X10870000Y-9470000D01*
X10870000Y-9370000D02*
X10770000Y-9470000D01*
X10770000Y-9624000D02*
X10870000Y-9724000D01*
X10870000Y-9624000D02*
X10770000Y-9724000D01*
X12630000Y-9182500D02*
X12730000Y-9282500D01*
X12730000Y-9182500D02*
X12630000Y-9282500D01*
X12630000Y-9436500D02*
X12730000Y-9536500D01*
X12730000Y-9436500D02*
X12630000Y-9536500D01*
D13*
X11355000Y-8290000D02*
G75*
G02*
X11245000Y-8290000I-55000J0D01*
G01*
X11245000Y-8290000D02*
G75*
G02*
X11355000Y-8290000I55000J0D01*
G01*
X11355000Y-8740000D02*
G75*
G02*
X11245000Y-8740000I-55000J0D01*
G01*
X11245000Y-8740000D02*
G75*
G02*
X11355000Y-8740000I55000J0D01*
G01*
X12005000Y-8290000D02*
G75*
G02*
X11895000Y-8290000I-55000J0D01*
G01*
X11895000Y-8290000D02*
G75*
G02*
X12005000Y-8290000I55000J0D01*
G01*
X12005000Y-8740000D02*
G75*
G02*
X11895000Y-8740000I-55000J0D01*
G01*
X11895000Y-8740000D02*
G75*
G02*
X12005000Y-8740000I55000J0D01*
G01*
D11*
X10678277Y-10513984D02*
X10678277Y-10313984D01*
X10678277Y-10313984D02*
X10725896Y-10313984D01*
X10725896Y-10313984D02*
X10754467Y-10323508D01*
X10754467Y-10323508D02*
X10773515Y-10342555D01*
X10773515Y-10342555D02*
X10783039Y-10361603D01*
X10783039Y-10361603D02*
X10792563Y-10399698D01*
X10792563Y-10399698D02*
X10792563Y-10428270D01*
X10792563Y-10428270D02*
X10783039Y-10466365D01*
X10783039Y-10466365D02*
X10773515Y-10485412D01*
X10773515Y-10485412D02*
X10754467Y-10504460D01*
X10754467Y-10504460D02*
X10725896Y-10513984D01*
X10725896Y-10513984D02*
X10678277Y-10513984D01*
X10878277Y-10513984D02*
X10878277Y-10380650D01*
X10878277Y-10418746D02*
X10887801Y-10399698D01*
X10887801Y-10399698D02*
X10897324Y-10390174D01*
X10897324Y-10390174D02*
X10916372Y-10380650D01*
X10916372Y-10380650D02*
X10935420Y-10380650D01*
X11002086Y-10513984D02*
X11002086Y-10380650D01*
X11002086Y-10313984D02*
X10992563Y-10323508D01*
X10992563Y-10323508D02*
X11002086Y-10333031D01*
X11002086Y-10333031D02*
X11011610Y-10323508D01*
X11011610Y-10323508D02*
X11002086Y-10313984D01*
X11002086Y-10313984D02*
X11002086Y-10333031D01*
X11125896Y-10513984D02*
X11106848Y-10504460D01*
X11106848Y-10504460D02*
X11097324Y-10485412D01*
X11097324Y-10485412D02*
X11097324Y-10313984D01*
X11230658Y-10513984D02*
X11211610Y-10504460D01*
X11211610Y-10504460D02*
X11202086Y-10485412D01*
X11202086Y-10485412D02*
X11202086Y-10313984D01*
X11459229Y-10513984D02*
X11459229Y-10313984D01*
X11459229Y-10313984D02*
X11525896Y-10456841D01*
X11525896Y-10456841D02*
X11592562Y-10313984D01*
X11592562Y-10313984D02*
X11592562Y-10513984D01*
X11773515Y-10513984D02*
X11773515Y-10409222D01*
X11773515Y-10409222D02*
X11763991Y-10390174D01*
X11763991Y-10390174D02*
X11744943Y-10380650D01*
X11744943Y-10380650D02*
X11706848Y-10380650D01*
X11706848Y-10380650D02*
X11687801Y-10390174D01*
X11773515Y-10504460D02*
X11754467Y-10513984D01*
X11754467Y-10513984D02*
X11706848Y-10513984D01*
X11706848Y-10513984D02*
X11687801Y-10504460D01*
X11687801Y-10504460D02*
X11678277Y-10485412D01*
X11678277Y-10485412D02*
X11678277Y-10466365D01*
X11678277Y-10466365D02*
X11687801Y-10447317D01*
X11687801Y-10447317D02*
X11706848Y-10437793D01*
X11706848Y-10437793D02*
X11754467Y-10437793D01*
X11754467Y-10437793D02*
X11773515Y-10428270D01*
X11868753Y-10380650D02*
X11868753Y-10580650D01*
X11868753Y-10390174D02*
X11887801Y-10380650D01*
X11887801Y-10380650D02*
X11925896Y-10380650D01*
X11925896Y-10380650D02*
X11944943Y-10390174D01*
X11944943Y-10390174D02*
X11954467Y-10399698D01*
X11954467Y-10399698D02*
X11963991Y-10418746D01*
X11963991Y-10418746D02*
X11963991Y-10475889D01*
X11963991Y-10475889D02*
X11954467Y-10494936D01*
X11954467Y-10494936D02*
X11944943Y-10504460D01*
X11944943Y-10504460D02*
X11925896Y-10513984D01*
X11925896Y-10513984D02*
X11887801Y-10513984D01*
X11887801Y-10513984D02*
X11868753Y-10504460D01*
X12049705Y-10494936D02*
X12059229Y-10504460D01*
X12059229Y-10504460D02*
X12049705Y-10513984D01*
X12049705Y-10513984D02*
X12040182Y-10504460D01*
X12040182Y-10504460D02*
X12049705Y-10494936D01*
X12049705Y-10494936D02*
X12049705Y-10513984D01*
X12049705Y-10390174D02*
X12059229Y-10399698D01*
X12059229Y-10399698D02*
X12049705Y-10409222D01*
X12049705Y-10409222D02*
X12040182Y-10399698D01*
X12040182Y-10399698D02*
X12049705Y-10390174D01*
X12049705Y-10390174D02*
X12049705Y-10409222D01*
D12*
X10317500Y-10792500D02*
X10417500Y-10892500D01*
X10417500Y-10792500D02*
X10317500Y-10892500D01*
D11*
X10783039Y-10933984D02*
X10668753Y-10933984D01*
X10725896Y-10933984D02*
X10725896Y-10733984D01*
X10725896Y-10733984D02*
X10706848Y-10762555D01*
X10706848Y-10762555D02*
X10687801Y-10781603D01*
X10687801Y-10781603D02*
X10668753Y-10791127D01*
X10868753Y-10914936D02*
X10878277Y-10924460D01*
X10878277Y-10924460D02*
X10868753Y-10933984D01*
X10868753Y-10933984D02*
X10859229Y-10924460D01*
X10859229Y-10924460D02*
X10868753Y-10914936D01*
X10868753Y-10914936D02*
X10868753Y-10933984D01*
X11002086Y-10733984D02*
X11021134Y-10733984D01*
X11021134Y-10733984D02*
X11040182Y-10743508D01*
X11040182Y-10743508D02*
X11049705Y-10753031D01*
X11049705Y-10753031D02*
X11059229Y-10772079D01*
X11059229Y-10772079D02*
X11068753Y-10810174D01*
X11068753Y-10810174D02*
X11068753Y-10857793D01*
X11068753Y-10857793D02*
X11059229Y-10895889D01*
X11059229Y-10895889D02*
X11049705Y-10914936D01*
X11049705Y-10914936D02*
X11040182Y-10924460D01*
X11040182Y-10924460D02*
X11021134Y-10933984D01*
X11021134Y-10933984D02*
X11002086Y-10933984D01*
X11002086Y-10933984D02*
X10983039Y-10924460D01*
X10983039Y-10924460D02*
X10973515Y-10914936D01*
X10973515Y-10914936D02*
X10963991Y-10895889D01*
X10963991Y-10895889D02*
X10954467Y-10857793D01*
X10954467Y-10857793D02*
X10954467Y-10810174D01*
X10954467Y-10810174D02*
X10963991Y-10772079D01*
X10963991Y-10772079D02*
X10973515Y-10753031D01*
X10973515Y-10753031D02*
X10983039Y-10743508D01*
X10983039Y-10743508D02*
X11002086Y-10733984D01*
X11192562Y-10733984D02*
X11211610Y-10733984D01*
X11211610Y-10733984D02*
X11230658Y-10743508D01*
X11230658Y-10743508D02*
X11240182Y-10753031D01*
X11240182Y-10753031D02*
X11249705Y-10772079D01*
X11249705Y-10772079D02*
X11259229Y-10810174D01*
X11259229Y-10810174D02*
X11259229Y-10857793D01*
X11259229Y-10857793D02*
X11249705Y-10895889D01*
X11249705Y-10895889D02*
X11240182Y-10914936D01*
X11240182Y-10914936D02*
X11230658Y-10924460D01*
X11230658Y-10924460D02*
X11211610Y-10933984D01*
X11211610Y-10933984D02*
X11192562Y-10933984D01*
X11192562Y-10933984D02*
X11173515Y-10924460D01*
X11173515Y-10924460D02*
X11163991Y-10914936D01*
X11163991Y-10914936D02*
X11154467Y-10895889D01*
X11154467Y-10895889D02*
X11144944Y-10857793D01*
X11144944Y-10857793D02*
X11144944Y-10810174D01*
X11144944Y-10810174D02*
X11154467Y-10772079D01*
X11154467Y-10772079D02*
X11163991Y-10753031D01*
X11163991Y-10753031D02*
X11173515Y-10743508D01*
X11173515Y-10743508D02*
X11192562Y-10733984D01*
X11383039Y-10733984D02*
X11402086Y-10733984D01*
X11402086Y-10733984D02*
X11421134Y-10743508D01*
X11421134Y-10743508D02*
X11430658Y-10753031D01*
X11430658Y-10753031D02*
X11440182Y-10772079D01*
X11440182Y-10772079D02*
X11449705Y-10810174D01*
X11449705Y-10810174D02*
X11449705Y-10857793D01*
X11449705Y-10857793D02*
X11440182Y-10895889D01*
X11440182Y-10895889D02*
X11430658Y-10914936D01*
X11430658Y-10914936D02*
X11421134Y-10924460D01*
X11421134Y-10924460D02*
X11402086Y-10933984D01*
X11402086Y-10933984D02*
X11383039Y-10933984D01*
X11383039Y-10933984D02*
X11363991Y-10924460D01*
X11363991Y-10924460D02*
X11354467Y-10914936D01*
X11354467Y-10914936D02*
X11344943Y-10895889D01*
X11344943Y-10895889D02*
X11335420Y-10857793D01*
X11335420Y-10857793D02*
X11335420Y-10810174D01*
X11335420Y-10810174D02*
X11344943Y-10772079D01*
X11344943Y-10772079D02*
X11354467Y-10753031D01*
X11354467Y-10753031D02*
X11363991Y-10743508D01*
X11363991Y-10743508D02*
X11383039Y-10733984D01*
X11535420Y-10933984D02*
X11535420Y-10800650D01*
X11535420Y-10819698D02*
X11544943Y-10810174D01*
X11544943Y-10810174D02*
X11563991Y-10800650D01*
X11563991Y-10800650D02*
X11592563Y-10800650D01*
X11592563Y-10800650D02*
X11611610Y-10810174D01*
X11611610Y-10810174D02*
X11621134Y-10829222D01*
X11621134Y-10829222D02*
X11621134Y-10933984D01*
X11621134Y-10829222D02*
X11630658Y-10810174D01*
X11630658Y-10810174D02*
X11649705Y-10800650D01*
X11649705Y-10800650D02*
X11678277Y-10800650D01*
X11678277Y-10800650D02*
X11697324Y-10810174D01*
X11697324Y-10810174D02*
X11706848Y-10829222D01*
X11706848Y-10829222D02*
X11706848Y-10933984D01*
X11802086Y-10933984D02*
X11802086Y-10800650D01*
X11802086Y-10819698D02*
X11811610Y-10810174D01*
X11811610Y-10810174D02*
X11830658Y-10800650D01*
X11830658Y-10800650D02*
X11859229Y-10800650D01*
X11859229Y-10800650D02*
X11878277Y-10810174D01*
X11878277Y-10810174D02*
X11887801Y-10829222D01*
X11887801Y-10829222D02*
X11887801Y-10933984D01*
X11887801Y-10829222D02*
X11897324Y-10810174D01*
X11897324Y-10810174D02*
X11916372Y-10800650D01*
X11916372Y-10800650D02*
X11944943Y-10800650D01*
X11944943Y-10800650D02*
X11963991Y-10810174D01*
X11963991Y-10810174D02*
X11973515Y-10829222D01*
X11973515Y-10829222D02*
X11973515Y-10933984D01*
X12363991Y-10724460D02*
X12192563Y-10981603D01*
X12621134Y-10733984D02*
X12640182Y-10733984D01*
X12640182Y-10733984D02*
X12659229Y-10743508D01*
X12659229Y-10743508D02*
X12668753Y-10753031D01*
X12668753Y-10753031D02*
X12678277Y-10772079D01*
X12678277Y-10772079D02*
X12687801Y-10810174D01*
X12687801Y-10810174D02*
X12687801Y-10857793D01*
X12687801Y-10857793D02*
X12678277Y-10895889D01*
X12678277Y-10895889D02*
X12668753Y-10914936D01*
X12668753Y-10914936D02*
X12659229Y-10924460D01*
X12659229Y-10924460D02*
X12640182Y-10933984D01*
X12640182Y-10933984D02*
X12621134Y-10933984D01*
X12621134Y-10933984D02*
X12602086Y-10924460D01*
X12602086Y-10924460D02*
X12592563Y-10914936D01*
X12592563Y-10914936D02*
X12583039Y-10895889D01*
X12583039Y-10895889D02*
X12573515Y-10857793D01*
X12573515Y-10857793D02*
X12573515Y-10810174D01*
X12573515Y-10810174D02*
X12583039Y-10772079D01*
X12583039Y-10772079D02*
X12592563Y-10753031D01*
X12592563Y-10753031D02*
X12602086Y-10743508D01*
X12602086Y-10743508D02*
X12621134Y-10733984D01*
X12773515Y-10914936D02*
X12783039Y-10924460D01*
X12783039Y-10924460D02*
X12773515Y-10933984D01*
X12773515Y-10933984D02*
X12763991Y-10924460D01*
X12763991Y-10924460D02*
X12773515Y-10914936D01*
X12773515Y-10914936D02*
X12773515Y-10933984D01*
X12906848Y-10733984D02*
X12925896Y-10733984D01*
X12925896Y-10733984D02*
X12944944Y-10743508D01*
X12944944Y-10743508D02*
X12954467Y-10753031D01*
X12954467Y-10753031D02*
X12963991Y-10772079D01*
X12963991Y-10772079D02*
X12973515Y-10810174D01*
X12973515Y-10810174D02*
X12973515Y-10857793D01*
X12973515Y-10857793D02*
X12963991Y-10895889D01*
X12963991Y-10895889D02*
X12954467Y-10914936D01*
X12954467Y-10914936D02*
X12944944Y-10924460D01*
X12944944Y-10924460D02*
X12925896Y-10933984D01*
X12925896Y-10933984D02*
X12906848Y-10933984D01*
X12906848Y-10933984D02*
X12887801Y-10924460D01*
X12887801Y-10924460D02*
X12878277Y-10914936D01*
X12878277Y-10914936D02*
X12868753Y-10895889D01*
X12868753Y-10895889D02*
X12859229Y-10857793D01*
X12859229Y-10857793D02*
X12859229Y-10810174D01*
X12859229Y-10810174D02*
X12868753Y-10772079D01*
X12868753Y-10772079D02*
X12878277Y-10753031D01*
X12878277Y-10753031D02*
X12887801Y-10743508D01*
X12887801Y-10743508D02*
X12906848Y-10733984D01*
X13040182Y-10733984D02*
X13163991Y-10733984D01*
X13163991Y-10733984D02*
X13097325Y-10810174D01*
X13097325Y-10810174D02*
X13125896Y-10810174D01*
X13125896Y-10810174D02*
X13144944Y-10819698D01*
X13144944Y-10819698D02*
X13154467Y-10829222D01*
X13154467Y-10829222D02*
X13163991Y-10848270D01*
X13163991Y-10848270D02*
X13163991Y-10895889D01*
X13163991Y-10895889D02*
X13154467Y-10914936D01*
X13154467Y-10914936D02*
X13144944Y-10924460D01*
X13144944Y-10924460D02*
X13125896Y-10933984D01*
X13125896Y-10933984D02*
X13068753Y-10933984D01*
X13068753Y-10933984D02*
X13049706Y-10924460D01*
X13049706Y-10924460D02*
X13040182Y-10914936D01*
X13259229Y-10933984D02*
X13297325Y-10933984D01*
X13297325Y-10933984D02*
X13316372Y-10924460D01*
X13316372Y-10924460D02*
X13325896Y-10914936D01*
X13325896Y-10914936D02*
X13344944Y-10886365D01*
X13344944Y-10886365D02*
X13354467Y-10848270D01*
X13354467Y-10848270D02*
X13354467Y-10772079D01*
X13354467Y-10772079D02*
X13344944Y-10753031D01*
X13344944Y-10753031D02*
X13335420Y-10743508D01*
X13335420Y-10743508D02*
X13316372Y-10733984D01*
X13316372Y-10733984D02*
X13278277Y-10733984D01*
X13278277Y-10733984D02*
X13259229Y-10743508D01*
X13259229Y-10743508D02*
X13249706Y-10753031D01*
X13249706Y-10753031D02*
X13240182Y-10772079D01*
X13240182Y-10772079D02*
X13240182Y-10819698D01*
X13240182Y-10819698D02*
X13249706Y-10838746D01*
X13249706Y-10838746D02*
X13259229Y-10848270D01*
X13259229Y-10848270D02*
X13278277Y-10857793D01*
X13278277Y-10857793D02*
X13316372Y-10857793D01*
X13316372Y-10857793D02*
X13335420Y-10848270D01*
X13335420Y-10848270D02*
X13344944Y-10838746D01*
X13344944Y-10838746D02*
X13354467Y-10819698D01*
X13525896Y-10800650D02*
X13525896Y-10933984D01*
X13478277Y-10724460D02*
X13430658Y-10867317D01*
X13430658Y-10867317D02*
X13554467Y-10867317D01*
X13621134Y-10733984D02*
X13621134Y-10772079D01*
X13697325Y-10733984D02*
X13697325Y-10772079D01*
X13992563Y-11010174D02*
X13983039Y-11000650D01*
X13983039Y-11000650D02*
X13963991Y-10972079D01*
X13963991Y-10972079D02*
X13954468Y-10953031D01*
X13954468Y-10953031D02*
X13944944Y-10924460D01*
X13944944Y-10924460D02*
X13935420Y-10876841D01*
X13935420Y-10876841D02*
X13935420Y-10838746D01*
X13935420Y-10838746D02*
X13944944Y-10791127D01*
X13944944Y-10791127D02*
X13954468Y-10762555D01*
X13954468Y-10762555D02*
X13963991Y-10743508D01*
X13963991Y-10743508D02*
X13983039Y-10714936D01*
X13983039Y-10714936D02*
X13992563Y-10705412D01*
X14049706Y-10733984D02*
X14183039Y-10733984D01*
X14183039Y-10733984D02*
X14097325Y-10933984D01*
X14411610Y-10933984D02*
X14411610Y-10733984D01*
X14497325Y-10933984D02*
X14497325Y-10829222D01*
X14497325Y-10829222D02*
X14487801Y-10810174D01*
X14487801Y-10810174D02*
X14468753Y-10800650D01*
X14468753Y-10800650D02*
X14440182Y-10800650D01*
X14440182Y-10800650D02*
X14421134Y-10810174D01*
X14421134Y-10810174D02*
X14411610Y-10819698D01*
X14621134Y-10933984D02*
X14602087Y-10924460D01*
X14602087Y-10924460D02*
X14592563Y-10914936D01*
X14592563Y-10914936D02*
X14583039Y-10895889D01*
X14583039Y-10895889D02*
X14583039Y-10838746D01*
X14583039Y-10838746D02*
X14592563Y-10819698D01*
X14592563Y-10819698D02*
X14602087Y-10810174D01*
X14602087Y-10810174D02*
X14621134Y-10800650D01*
X14621134Y-10800650D02*
X14649706Y-10800650D01*
X14649706Y-10800650D02*
X14668753Y-10810174D01*
X14668753Y-10810174D02*
X14678277Y-10819698D01*
X14678277Y-10819698D02*
X14687801Y-10838746D01*
X14687801Y-10838746D02*
X14687801Y-10895889D01*
X14687801Y-10895889D02*
X14678277Y-10914936D01*
X14678277Y-10914936D02*
X14668753Y-10924460D01*
X14668753Y-10924460D02*
X14649706Y-10933984D01*
X14649706Y-10933984D02*
X14621134Y-10933984D01*
X14802087Y-10933984D02*
X14783039Y-10924460D01*
X14783039Y-10924460D02*
X14773515Y-10905412D01*
X14773515Y-10905412D02*
X14773515Y-10733984D01*
X14954468Y-10924460D02*
X14935420Y-10933984D01*
X14935420Y-10933984D02*
X14897325Y-10933984D01*
X14897325Y-10933984D02*
X14878277Y-10924460D01*
X14878277Y-10924460D02*
X14868753Y-10905412D01*
X14868753Y-10905412D02*
X14868753Y-10829222D01*
X14868753Y-10829222D02*
X14878277Y-10810174D01*
X14878277Y-10810174D02*
X14897325Y-10800650D01*
X14897325Y-10800650D02*
X14935420Y-10800650D01*
X14935420Y-10800650D02*
X14954468Y-10810174D01*
X14954468Y-10810174D02*
X14963991Y-10829222D01*
X14963991Y-10829222D02*
X14963991Y-10848270D01*
X14963991Y-10848270D02*
X14868753Y-10867317D01*
X15040182Y-10924460D02*
X15059230Y-10933984D01*
X15059230Y-10933984D02*
X15097325Y-10933984D01*
X15097325Y-10933984D02*
X15116372Y-10924460D01*
X15116372Y-10924460D02*
X15125896Y-10905412D01*
X15125896Y-10905412D02*
X15125896Y-10895889D01*
X15125896Y-10895889D02*
X15116372Y-10876841D01*
X15116372Y-10876841D02*
X15097325Y-10867317D01*
X15097325Y-10867317D02*
X15068753Y-10867317D01*
X15068753Y-10867317D02*
X15049706Y-10857793D01*
X15049706Y-10857793D02*
X15040182Y-10838746D01*
X15040182Y-10838746D02*
X15040182Y-10829222D01*
X15040182Y-10829222D02*
X15049706Y-10810174D01*
X15049706Y-10810174D02*
X15068753Y-10800650D01*
X15068753Y-10800650D02*
X15097325Y-10800650D01*
X15097325Y-10800650D02*
X15116372Y-10810174D01*
X15192563Y-11010174D02*
X15202087Y-11000650D01*
X15202087Y-11000650D02*
X15221134Y-10972079D01*
X15221134Y-10972079D02*
X15230658Y-10953031D01*
X15230658Y-10953031D02*
X15240182Y-10924460D01*
X15240182Y-10924460D02*
X15249706Y-10876841D01*
X15249706Y-10876841D02*
X15249706Y-10838746D01*
X15249706Y-10838746D02*
X15240182Y-10791127D01*
X15240182Y-10791127D02*
X15230658Y-10762555D01*
X15230658Y-10762555D02*
X15221134Y-10743508D01*
X15221134Y-10743508D02*
X15202087Y-10714936D01*
X15202087Y-10714936D02*
X15192563Y-10705412D01*
D13*
X10417500Y-11106500D02*
G75*
G02*
X10307500Y-11106500I-55000J0D01*
G01*
X10307500Y-11106500D02*
G75*
G02*
X10417500Y-11106500I55000J0D01*
G01*
D11*
X10783039Y-11197984D02*
X10668753Y-11197984D01*
X10725896Y-11197984D02*
X10725896Y-10997984D01*
X10725896Y-10997984D02*
X10706848Y-11026555D01*
X10706848Y-11026555D02*
X10687801Y-11045603D01*
X10687801Y-11045603D02*
X10668753Y-11055127D01*
X10868753Y-11178936D02*
X10878277Y-11188460D01*
X10878277Y-11188460D02*
X10868753Y-11197984D01*
X10868753Y-11197984D02*
X10859229Y-11188460D01*
X10859229Y-11188460D02*
X10868753Y-11178936D01*
X10868753Y-11178936D02*
X10868753Y-11197984D01*
X11068753Y-11197984D02*
X10954467Y-11197984D01*
X11011610Y-11197984D02*
X11011610Y-10997984D01*
X11011610Y-10997984D02*
X10992563Y-11026555D01*
X10992563Y-11026555D02*
X10973515Y-11045603D01*
X10973515Y-11045603D02*
X10954467Y-11055127D01*
X11192562Y-10997984D02*
X11211610Y-10997984D01*
X11211610Y-10997984D02*
X11230658Y-11007508D01*
X11230658Y-11007508D02*
X11240182Y-11017031D01*
X11240182Y-11017031D02*
X11249705Y-11036079D01*
X11249705Y-11036079D02*
X11259229Y-11074174D01*
X11259229Y-11074174D02*
X11259229Y-11121793D01*
X11259229Y-11121793D02*
X11249705Y-11159889D01*
X11249705Y-11159889D02*
X11240182Y-11178936D01*
X11240182Y-11178936D02*
X11230658Y-11188460D01*
X11230658Y-11188460D02*
X11211610Y-11197984D01*
X11211610Y-11197984D02*
X11192562Y-11197984D01*
X11192562Y-11197984D02*
X11173515Y-11188460D01*
X11173515Y-11188460D02*
X11163991Y-11178936D01*
X11163991Y-11178936D02*
X11154467Y-11159889D01*
X11154467Y-11159889D02*
X11144944Y-11121793D01*
X11144944Y-11121793D02*
X11144944Y-11074174D01*
X11144944Y-11074174D02*
X11154467Y-11036079D01*
X11154467Y-11036079D02*
X11163991Y-11017031D01*
X11163991Y-11017031D02*
X11173515Y-11007508D01*
X11173515Y-11007508D02*
X11192562Y-10997984D01*
X11383039Y-10997984D02*
X11402086Y-10997984D01*
X11402086Y-10997984D02*
X11421134Y-11007508D01*
X11421134Y-11007508D02*
X11430658Y-11017031D01*
X11430658Y-11017031D02*
X11440182Y-11036079D01*
X11440182Y-11036079D02*
X11449705Y-11074174D01*
X11449705Y-11074174D02*
X11449705Y-11121793D01*
X11449705Y-11121793D02*
X11440182Y-11159889D01*
X11440182Y-11159889D02*
X11430658Y-11178936D01*
X11430658Y-11178936D02*
X11421134Y-11188460D01*
X11421134Y-11188460D02*
X11402086Y-11197984D01*
X11402086Y-11197984D02*
X11383039Y-11197984D01*
X11383039Y-11197984D02*
X11363991Y-11188460D01*
X11363991Y-11188460D02*
X11354467Y-11178936D01*
X11354467Y-11178936D02*
X11344943Y-11159889D01*
X11344943Y-11159889D02*
X11335420Y-11121793D01*
X11335420Y-11121793D02*
X11335420Y-11074174D01*
X11335420Y-11074174D02*
X11344943Y-11036079D01*
X11344943Y-11036079D02*
X11354467Y-11017031D01*
X11354467Y-11017031D02*
X11363991Y-11007508D01*
X11363991Y-11007508D02*
X11383039Y-10997984D01*
X11535420Y-11197984D02*
X11535420Y-11064650D01*
X11535420Y-11083698D02*
X11544943Y-11074174D01*
X11544943Y-11074174D02*
X11563991Y-11064650D01*
X11563991Y-11064650D02*
X11592563Y-11064650D01*
X11592563Y-11064650D02*
X11611610Y-11074174D01*
X11611610Y-11074174D02*
X11621134Y-11093222D01*
X11621134Y-11093222D02*
X11621134Y-11197984D01*
X11621134Y-11093222D02*
X11630658Y-11074174D01*
X11630658Y-11074174D02*
X11649705Y-11064650D01*
X11649705Y-11064650D02*
X11678277Y-11064650D01*
X11678277Y-11064650D02*
X11697324Y-11074174D01*
X11697324Y-11074174D02*
X11706848Y-11093222D01*
X11706848Y-11093222D02*
X11706848Y-11197984D01*
X11802086Y-11197984D02*
X11802086Y-11064650D01*
X11802086Y-11083698D02*
X11811610Y-11074174D01*
X11811610Y-11074174D02*
X11830658Y-11064650D01*
X11830658Y-11064650D02*
X11859229Y-11064650D01*
X11859229Y-11064650D02*
X11878277Y-11074174D01*
X11878277Y-11074174D02*
X11887801Y-11093222D01*
X11887801Y-11093222D02*
X11887801Y-11197984D01*
X11887801Y-11093222D02*
X11897324Y-11074174D01*
X11897324Y-11074174D02*
X11916372Y-11064650D01*
X11916372Y-11064650D02*
X11944943Y-11064650D01*
X11944943Y-11064650D02*
X11963991Y-11074174D01*
X11963991Y-11074174D02*
X11973515Y-11093222D01*
X11973515Y-11093222D02*
X11973515Y-11197984D01*
X12363991Y-10988460D02*
X12192563Y-11245603D01*
X12621134Y-10997984D02*
X12640182Y-10997984D01*
X12640182Y-10997984D02*
X12659229Y-11007508D01*
X12659229Y-11007508D02*
X12668753Y-11017031D01*
X12668753Y-11017031D02*
X12678277Y-11036079D01*
X12678277Y-11036079D02*
X12687801Y-11074174D01*
X12687801Y-11074174D02*
X12687801Y-11121793D01*
X12687801Y-11121793D02*
X12678277Y-11159889D01*
X12678277Y-11159889D02*
X12668753Y-11178936D01*
X12668753Y-11178936D02*
X12659229Y-11188460D01*
X12659229Y-11188460D02*
X12640182Y-11197984D01*
X12640182Y-11197984D02*
X12621134Y-11197984D01*
X12621134Y-11197984D02*
X12602086Y-11188460D01*
X12602086Y-11188460D02*
X12592563Y-11178936D01*
X12592563Y-11178936D02*
X12583039Y-11159889D01*
X12583039Y-11159889D02*
X12573515Y-11121793D01*
X12573515Y-11121793D02*
X12573515Y-11074174D01*
X12573515Y-11074174D02*
X12583039Y-11036079D01*
X12583039Y-11036079D02*
X12592563Y-11017031D01*
X12592563Y-11017031D02*
X12602086Y-11007508D01*
X12602086Y-11007508D02*
X12621134Y-10997984D01*
X12773515Y-11178936D02*
X12783039Y-11188460D01*
X12783039Y-11188460D02*
X12773515Y-11197984D01*
X12773515Y-11197984D02*
X12763991Y-11188460D01*
X12763991Y-11188460D02*
X12773515Y-11178936D01*
X12773515Y-11178936D02*
X12773515Y-11197984D01*
X12906848Y-10997984D02*
X12925896Y-10997984D01*
X12925896Y-10997984D02*
X12944944Y-11007508D01*
X12944944Y-11007508D02*
X12954467Y-11017031D01*
X12954467Y-11017031D02*
X12963991Y-11036079D01*
X12963991Y-11036079D02*
X12973515Y-11074174D01*
X12973515Y-11074174D02*
X12973515Y-11121793D01*
X12973515Y-11121793D02*
X12963991Y-11159889D01*
X12963991Y-11159889D02*
X12954467Y-11178936D01*
X12954467Y-11178936D02*
X12944944Y-11188460D01*
X12944944Y-11188460D02*
X12925896Y-11197984D01*
X12925896Y-11197984D02*
X12906848Y-11197984D01*
X12906848Y-11197984D02*
X12887801Y-11188460D01*
X12887801Y-11188460D02*
X12878277Y-11178936D01*
X12878277Y-11178936D02*
X12868753Y-11159889D01*
X12868753Y-11159889D02*
X12859229Y-11121793D01*
X12859229Y-11121793D02*
X12859229Y-11074174D01*
X12859229Y-11074174D02*
X12868753Y-11036079D01*
X12868753Y-11036079D02*
X12878277Y-11017031D01*
X12878277Y-11017031D02*
X12887801Y-11007508D01*
X12887801Y-11007508D02*
X12906848Y-10997984D01*
X13144944Y-11064650D02*
X13144944Y-11197984D01*
X13097325Y-10988460D02*
X13049706Y-11131317D01*
X13049706Y-11131317D02*
X13173515Y-11131317D01*
X13230658Y-10997984D02*
X13354467Y-10997984D01*
X13354467Y-10997984D02*
X13287801Y-11074174D01*
X13287801Y-11074174D02*
X13316372Y-11074174D01*
X13316372Y-11074174D02*
X13335420Y-11083698D01*
X13335420Y-11083698D02*
X13344944Y-11093222D01*
X13344944Y-11093222D02*
X13354467Y-11112270D01*
X13354467Y-11112270D02*
X13354467Y-11159889D01*
X13354467Y-11159889D02*
X13344944Y-11178936D01*
X13344944Y-11178936D02*
X13335420Y-11188460D01*
X13335420Y-11188460D02*
X13316372Y-11197984D01*
X13316372Y-11197984D02*
X13259229Y-11197984D01*
X13259229Y-11197984D02*
X13240182Y-11188460D01*
X13240182Y-11188460D02*
X13230658Y-11178936D01*
X13421134Y-10997984D02*
X13544944Y-10997984D01*
X13544944Y-10997984D02*
X13478277Y-11074174D01*
X13478277Y-11074174D02*
X13506848Y-11074174D01*
X13506848Y-11074174D02*
X13525896Y-11083698D01*
X13525896Y-11083698D02*
X13535420Y-11093222D01*
X13535420Y-11093222D02*
X13544944Y-11112270D01*
X13544944Y-11112270D02*
X13544944Y-11159889D01*
X13544944Y-11159889D02*
X13535420Y-11178936D01*
X13535420Y-11178936D02*
X13525896Y-11188460D01*
X13525896Y-11188460D02*
X13506848Y-11197984D01*
X13506848Y-11197984D02*
X13449706Y-11197984D01*
X13449706Y-11197984D02*
X13430658Y-11188460D01*
X13430658Y-11188460D02*
X13421134Y-11178936D01*
X13621134Y-10997984D02*
X13621134Y-11036079D01*
X13697325Y-10997984D02*
X13697325Y-11036079D01*
X13992563Y-11274174D02*
X13983039Y-11264650D01*
X13983039Y-11264650D02*
X13963991Y-11236079D01*
X13963991Y-11236079D02*
X13954468Y-11217031D01*
X13954468Y-11217031D02*
X13944944Y-11188460D01*
X13944944Y-11188460D02*
X13935420Y-11140841D01*
X13935420Y-11140841D02*
X13935420Y-11102746D01*
X13935420Y-11102746D02*
X13944944Y-11055127D01*
X13944944Y-11055127D02*
X13954468Y-11026555D01*
X13954468Y-11026555D02*
X13963991Y-11007508D01*
X13963991Y-11007508D02*
X13983039Y-10978936D01*
X13983039Y-10978936D02*
X13992563Y-10969412D01*
X14154468Y-11064650D02*
X14154468Y-11197984D01*
X14106848Y-10988460D02*
X14059229Y-11131317D01*
X14059229Y-11131317D02*
X14183039Y-11131317D01*
X14411610Y-11197984D02*
X14411610Y-10997984D01*
X14497325Y-11197984D02*
X14497325Y-11093222D01*
X14497325Y-11093222D02*
X14487801Y-11074174D01*
X14487801Y-11074174D02*
X14468753Y-11064650D01*
X14468753Y-11064650D02*
X14440182Y-11064650D01*
X14440182Y-11064650D02*
X14421134Y-11074174D01*
X14421134Y-11074174D02*
X14411610Y-11083698D01*
X14621134Y-11197984D02*
X14602087Y-11188460D01*
X14602087Y-11188460D02*
X14592563Y-11178936D01*
X14592563Y-11178936D02*
X14583039Y-11159889D01*
X14583039Y-11159889D02*
X14583039Y-11102746D01*
X14583039Y-11102746D02*
X14592563Y-11083698D01*
X14592563Y-11083698D02*
X14602087Y-11074174D01*
X14602087Y-11074174D02*
X14621134Y-11064650D01*
X14621134Y-11064650D02*
X14649706Y-11064650D01*
X14649706Y-11064650D02*
X14668753Y-11074174D01*
X14668753Y-11074174D02*
X14678277Y-11083698D01*
X14678277Y-11083698D02*
X14687801Y-11102746D01*
X14687801Y-11102746D02*
X14687801Y-11159889D01*
X14687801Y-11159889D02*
X14678277Y-11178936D01*
X14678277Y-11178936D02*
X14668753Y-11188460D01*
X14668753Y-11188460D02*
X14649706Y-11197984D01*
X14649706Y-11197984D02*
X14621134Y-11197984D01*
X14802087Y-11197984D02*
X14783039Y-11188460D01*
X14783039Y-11188460D02*
X14773515Y-11169412D01*
X14773515Y-11169412D02*
X14773515Y-10997984D01*
X14954468Y-11188460D02*
X14935420Y-11197984D01*
X14935420Y-11197984D02*
X14897325Y-11197984D01*
X14897325Y-11197984D02*
X14878277Y-11188460D01*
X14878277Y-11188460D02*
X14868753Y-11169412D01*
X14868753Y-11169412D02*
X14868753Y-11093222D01*
X14868753Y-11093222D02*
X14878277Y-11074174D01*
X14878277Y-11074174D02*
X14897325Y-11064650D01*
X14897325Y-11064650D02*
X14935420Y-11064650D01*
X14935420Y-11064650D02*
X14954468Y-11074174D01*
X14954468Y-11074174D02*
X14963991Y-11093222D01*
X14963991Y-11093222D02*
X14963991Y-11112270D01*
X14963991Y-11112270D02*
X14868753Y-11131317D01*
X15040182Y-11188460D02*
X15059230Y-11197984D01*
X15059230Y-11197984D02*
X15097325Y-11197984D01*
X15097325Y-11197984D02*
X15116372Y-11188460D01*
X15116372Y-11188460D02*
X15125896Y-11169412D01*
X15125896Y-11169412D02*
X15125896Y-11159889D01*
X15125896Y-11159889D02*
X15116372Y-11140841D01*
X15116372Y-11140841D02*
X15097325Y-11131317D01*
X15097325Y-11131317D02*
X15068753Y-11131317D01*
X15068753Y-11131317D02*
X15049706Y-11121793D01*
X15049706Y-11121793D02*
X15040182Y-11102746D01*
X15040182Y-11102746D02*
X15040182Y-11093222D01*
X15040182Y-11093222D02*
X15049706Y-11074174D01*
X15049706Y-11074174D02*
X15068753Y-11064650D01*
X15068753Y-11064650D02*
X15097325Y-11064650D01*
X15097325Y-11064650D02*
X15116372Y-11074174D01*
X15192563Y-11274174D02*
X15202087Y-11264650D01*
X15202087Y-11264650D02*
X15221134Y-11236079D01*
X15221134Y-11236079D02*
X15230658Y-11217031D01*
X15230658Y-11217031D02*
X15240182Y-11188460D01*
X15240182Y-11188460D02*
X15249706Y-11140841D01*
X15249706Y-11140841D02*
X15249706Y-11102746D01*
X15249706Y-11102746D02*
X15240182Y-11055127D01*
X15240182Y-11055127D02*
X15230658Y-11026555D01*
X15230658Y-11026555D02*
X15221134Y-11007508D01*
X15221134Y-11007508D02*
X15202087Y-10978936D01*
X15202087Y-10978936D02*
X15192563Y-10969412D01*
M02*
