%TF.GenerationSoftware,KiCad,Pcbnew,9.0.3*%
%TF.CreationDate,2025-11-22T12:31:01+05:30*%
%TF.ProjectId,multilayer trial,6d756c74-696c-4617-9965-722074726961,rev?*%
%TF.SameCoordinates,Original*%
%TF.FileFunction,Copper,L2,Inr*%
%TF.FilePolarity,Positive*%
%FSLAX46Y46*%
G04 Gerber Fmt 4.6, Leading zero omitted, Abs format (unit mm)*
G04 Created by KiCad (PCBNEW 9.0.3) date 2025-11-22 12:31:01*
%MOMM*%
%LPD*%
G01*
G04 APERTURE LIST*
%TA.AperFunction,ComponentPad*%
%ADD10C,2.000000*%
%TD*%
%TA.AperFunction,ComponentPad*%
%ADD11R,1.700000X1.700000*%
%TD*%
%TA.AperFunction,ComponentPad*%
%ADD12C,1.700000*%
%TD*%
G04 APERTURE END LIST*
D10*
%TO.N,GNDD*%
%TO.C,SW1*%
X113000000Y-82900000D03*
X119500000Y-82900000D03*
%TO.N,Net-(U1-~{RESET}{slash}PB5)*%
X113000000Y-87400000D03*
X119500000Y-87400000D03*
%TD*%
D11*
%TO.N,Net-(J2-Pin_1)*%
%TO.C,J2*%
X108200000Y-96740000D03*
D12*
%TO.N,Net-(J2-Pin_2)*%
X108200000Y-94200000D03*
%TO.N,Net-(J2-Pin_3)*%
X108200000Y-91660000D03*
%TO.N,Net-(J2-Pin_4)*%
X108200000Y-89120000D03*
%TO.N,Net-(J2-Pin_5)*%
X108200000Y-86580000D03*
%TD*%
D11*
%TO.N,GNDD*%
%TO.C,J1*%
X126800000Y-92325000D03*
D12*
%TO.N,5VD*%
X126800000Y-94865000D03*
%TD*%
%TA.AperFunction,Conductor*%
%TO.N,GNDD*%
G36*
X129842539Y-80320185D02*
G01*
X129888294Y-80372989D01*
X129899500Y-80424500D01*
X129899500Y-101375500D01*
X129879815Y-101442539D01*
X129827011Y-101488294D01*
X129775500Y-101499500D01*
X104824500Y-101499500D01*
X104757461Y-101479815D01*
X104711706Y-101427011D01*
X104700500Y-101375500D01*
X104700500Y-86473713D01*
X106849500Y-86473713D01*
X106849500Y-86686287D01*
X106882754Y-86896243D01*
X106932268Y-87048632D01*
X106948444Y-87098414D01*
X107044951Y-87287820D01*
X107169890Y-87459786D01*
X107320213Y-87610109D01*
X107492182Y-87735050D01*
X107500946Y-87739516D01*
X107551742Y-87787491D01*
X107568536Y-87855312D01*
X107545998Y-87921447D01*
X107500946Y-87960484D01*
X107492182Y-87964949D01*
X107320213Y-88089890D01*
X107169890Y-88240213D01*
X107044951Y-88412179D01*
X106948444Y-88601585D01*
X106882753Y-88803760D01*
X106849500Y-89013713D01*
X106849500Y-89226286D01*
X106882753Y-89436239D01*
X106948444Y-89638414D01*
X107044951Y-89827820D01*
X107169890Y-89999786D01*
X107320213Y-90150109D01*
X107492182Y-90275050D01*
X107500946Y-90279516D01*
X107551742Y-90327491D01*
X107568536Y-90395312D01*
X107545998Y-90461447D01*
X107500946Y-90500484D01*
X107492182Y-90504949D01*
X107320213Y-90629890D01*
X107169890Y-90780213D01*
X107044951Y-90952179D01*
X106948444Y-91141585D01*
X106882753Y-91343760D01*
X106878974Y-91367620D01*
X106849500Y-91553713D01*
X106849500Y-91766287D01*
X106882754Y-91976243D01*
X106914842Y-92075000D01*
X106948444Y-92178414D01*
X107044951Y-92367820D01*
X107169890Y-92539786D01*
X107320213Y-92690109D01*
X107492182Y-92815050D01*
X107500946Y-92819516D01*
X107551742Y-92867491D01*
X107568536Y-92935312D01*
X107545998Y-93001447D01*
X107500946Y-93040484D01*
X107492182Y-93044949D01*
X107320213Y-93169890D01*
X107169890Y-93320213D01*
X107044951Y-93492179D01*
X106948444Y-93681585D01*
X106882753Y-93883760D01*
X106849500Y-94093713D01*
X106849500Y-94306287D01*
X106882754Y-94516243D01*
X106947505Y-94715526D01*
X106948444Y-94718414D01*
X107044951Y-94907820D01*
X107169890Y-95079786D01*
X107283430Y-95193326D01*
X107316915Y-95254649D01*
X107311931Y-95324341D01*
X107270059Y-95380274D01*
X107239083Y-95397189D01*
X107107669Y-95446203D01*
X107107664Y-95446206D01*
X106992455Y-95532452D01*
X106992452Y-95532455D01*
X106906206Y-95647664D01*
X106906202Y-95647671D01*
X106855908Y-95782517D01*
X106849501Y-95842116D01*
X106849501Y-95842123D01*
X106849500Y-95842135D01*
X106849500Y-97637870D01*
X106849501Y-97637876D01*
X106855908Y-97697483D01*
X106906202Y-97832328D01*
X106906206Y-97832335D01*
X106992452Y-97947544D01*
X106992455Y-97947547D01*
X107107664Y-98033793D01*
X107107671Y-98033797D01*
X107242517Y-98084091D01*
X107242516Y-98084091D01*
X107249444Y-98084835D01*
X107302127Y-98090500D01*
X109097872Y-98090499D01*
X109157483Y-98084091D01*
X109292331Y-98033796D01*
X109407546Y-97947546D01*
X109493796Y-97832331D01*
X109544091Y-97697483D01*
X109550500Y-97637873D01*
X109550499Y-95842128D01*
X109544091Y-95782517D01*
X109530020Y-95744792D01*
X109493797Y-95647671D01*
X109493793Y-95647664D01*
X109407547Y-95532455D01*
X109407544Y-95532452D01*
X109292335Y-95446206D01*
X109292328Y-95446202D01*
X109160917Y-95397189D01*
X109104983Y-95355318D01*
X109080566Y-95289853D01*
X109095418Y-95221580D01*
X109116563Y-95193332D01*
X109230104Y-95079792D01*
X109355051Y-94907816D01*
X109431023Y-94758713D01*
X125449500Y-94758713D01*
X125449500Y-94971287D01*
X125482754Y-95181243D01*
X125547423Y-95380274D01*
X125548444Y-95383414D01*
X125644951Y-95572820D01*
X125769890Y-95744786D01*
X125920213Y-95895109D01*
X126092179Y-96020048D01*
X126092181Y-96020049D01*
X126092184Y-96020051D01*
X126281588Y-96116557D01*
X126483757Y-96182246D01*
X126693713Y-96215500D01*
X126693714Y-96215500D01*
X126906286Y-96215500D01*
X126906287Y-96215500D01*
X127116243Y-96182246D01*
X127318412Y-96116557D01*
X127507816Y-96020051D01*
X127529789Y-96004086D01*
X127679786Y-95895109D01*
X127679788Y-95895106D01*
X127679792Y-95895104D01*
X127830104Y-95744792D01*
X127830106Y-95744788D01*
X127830109Y-95744786D01*
X127955048Y-95572820D01*
X127955047Y-95572820D01*
X127955051Y-95572816D01*
X128051557Y-95383412D01*
X128117246Y-95181243D01*
X128150500Y-94971287D01*
X128150500Y-94758713D01*
X128117246Y-94548757D01*
X128051557Y-94346588D01*
X127955051Y-94157184D01*
X127955049Y-94157181D01*
X127955048Y-94157179D01*
X127830109Y-93985213D01*
X127716181Y-93871285D01*
X127682696Y-93809962D01*
X127687680Y-93740270D01*
X127729552Y-93684337D01*
X127760529Y-93667422D01*
X127892086Y-93618354D01*
X127892093Y-93618350D01*
X128007187Y-93532190D01*
X128007190Y-93532187D01*
X128093350Y-93417093D01*
X128093354Y-93417086D01*
X128143596Y-93282379D01*
X128143598Y-93282372D01*
X128149999Y-93222844D01*
X128150000Y-93222827D01*
X128150000Y-92575000D01*
X127233012Y-92575000D01*
X127265925Y-92517993D01*
X127300000Y-92390826D01*
X127300000Y-92259174D01*
X127265925Y-92132007D01*
X127233012Y-92075000D01*
X128150000Y-92075000D01*
X128150000Y-91427172D01*
X128149999Y-91427155D01*
X128143598Y-91367627D01*
X128143596Y-91367620D01*
X128093354Y-91232913D01*
X128093350Y-91232906D01*
X128007190Y-91117812D01*
X128007187Y-91117809D01*
X127892093Y-91031649D01*
X127892086Y-91031645D01*
X127757379Y-90981403D01*
X127757372Y-90981401D01*
X127697844Y-90975000D01*
X127050000Y-90975000D01*
X127050000Y-91891988D01*
X126992993Y-91859075D01*
X126865826Y-91825000D01*
X126734174Y-91825000D01*
X126607007Y-91859075D01*
X126550000Y-91891988D01*
X126550000Y-90975000D01*
X125902155Y-90975000D01*
X125842627Y-90981401D01*
X125842620Y-90981403D01*
X125707913Y-91031645D01*
X125707906Y-91031649D01*
X125592812Y-91117809D01*
X125592809Y-91117812D01*
X125506649Y-91232906D01*
X125506645Y-91232913D01*
X125456403Y-91367620D01*
X125456401Y-91367627D01*
X125450000Y-91427155D01*
X125450000Y-92075000D01*
X126366988Y-92075000D01*
X126334075Y-92132007D01*
X126300000Y-92259174D01*
X126300000Y-92390826D01*
X126334075Y-92517993D01*
X126366988Y-92575000D01*
X125450000Y-92575000D01*
X125450000Y-93222844D01*
X125456401Y-93282372D01*
X125456403Y-93282379D01*
X125506645Y-93417086D01*
X125506649Y-93417093D01*
X125592809Y-93532187D01*
X125592812Y-93532190D01*
X125707906Y-93618350D01*
X125707913Y-93618354D01*
X125839470Y-93667422D01*
X125895404Y-93709293D01*
X125919821Y-93774758D01*
X125904969Y-93843031D01*
X125883819Y-93871285D01*
X125769889Y-93985215D01*
X125644951Y-94157179D01*
X125548444Y-94346585D01*
X125482753Y-94548760D01*
X125456341Y-94715523D01*
X125449500Y-94758713D01*
X109431023Y-94758713D01*
X109451557Y-94718412D01*
X109517246Y-94516243D01*
X109550500Y-94306287D01*
X109550500Y-94093713D01*
X109517246Y-93883757D01*
X109451557Y-93681588D01*
X109355051Y-93492184D01*
X109355049Y-93492181D01*
X109355048Y-93492179D01*
X109230109Y-93320213D01*
X109079786Y-93169890D01*
X108907820Y-93044951D01*
X108907115Y-93044591D01*
X108899054Y-93040485D01*
X108848259Y-92992512D01*
X108831463Y-92924692D01*
X108853999Y-92858556D01*
X108899054Y-92819515D01*
X108907816Y-92815051D01*
X108941023Y-92790925D01*
X109079786Y-92690109D01*
X109079788Y-92690106D01*
X109079792Y-92690104D01*
X109230104Y-92539792D01*
X109230106Y-92539788D01*
X109230109Y-92539786D01*
X109355048Y-92367820D01*
X109355047Y-92367820D01*
X109355051Y-92367816D01*
X109451557Y-92178412D01*
X109517246Y-91976243D01*
X109550500Y-91766287D01*
X109550500Y-91553713D01*
X109517246Y-91343757D01*
X109451557Y-91141588D01*
X109355051Y-90952184D01*
X109355049Y-90952181D01*
X109355048Y-90952179D01*
X109230109Y-90780213D01*
X109079786Y-90629890D01*
X108907820Y-90504951D01*
X108907115Y-90504591D01*
X108899054Y-90500485D01*
X108848259Y-90452512D01*
X108831463Y-90384692D01*
X108853999Y-90318556D01*
X108899054Y-90279515D01*
X108907816Y-90275051D01*
X108929789Y-90259086D01*
X109079786Y-90150109D01*
X109079788Y-90150106D01*
X109079792Y-90150104D01*
X109230104Y-89999792D01*
X109230106Y-89999788D01*
X109230109Y-89999786D01*
X109355048Y-89827820D01*
X109355047Y-89827820D01*
X109355051Y-89827816D01*
X109451557Y-89638412D01*
X109517246Y-89436243D01*
X109550500Y-89226287D01*
X109550500Y-89013713D01*
X109517246Y-88803757D01*
X109451557Y-88601588D01*
X109355051Y-88412184D01*
X109355049Y-88412181D01*
X109355048Y-88412179D01*
X109230109Y-88240213D01*
X109079786Y-88089890D01*
X108907820Y-87964951D01*
X108907115Y-87964591D01*
X108899054Y-87960485D01*
X108848259Y-87912512D01*
X108831463Y-87844692D01*
X108853999Y-87778556D01*
X108899054Y-87739515D01*
X108907816Y-87735051D01*
X108929789Y-87719086D01*
X109079786Y-87610109D01*
X109079788Y-87610106D01*
X109079792Y-87610104D01*
X109230104Y-87459792D01*
X109230106Y-87459788D01*
X109230109Y-87459786D01*
X109355050Y-87287817D01*
X109358064Y-87281902D01*
X111499500Y-87281902D01*
X111499500Y-87518097D01*
X111536446Y-87751368D01*
X111609433Y-87975996D01*
X111716657Y-88186433D01*
X111855483Y-88377510D01*
X112022490Y-88544517D01*
X112213567Y-88683343D01*
X112312991Y-88734002D01*
X112424003Y-88790566D01*
X112424005Y-88790566D01*
X112424008Y-88790568D01*
X112464609Y-88803760D01*
X112648631Y-88863553D01*
X112881903Y-88900500D01*
X112881908Y-88900500D01*
X113118097Y-88900500D01*
X113351368Y-88863553D01*
X113575992Y-88790568D01*
X113786433Y-88683343D01*
X113977510Y-88544517D01*
X114144517Y-88377510D01*
X114283343Y-88186433D01*
X114390568Y-87975992D01*
X114463553Y-87751368D01*
X114465430Y-87739516D01*
X114500500Y-87518097D01*
X114500500Y-87281902D01*
X117999500Y-87281902D01*
X117999500Y-87518097D01*
X118036446Y-87751368D01*
X118109433Y-87975996D01*
X118216657Y-88186433D01*
X118355483Y-88377510D01*
X118522490Y-88544517D01*
X118713567Y-88683343D01*
X118812991Y-88734002D01*
X118924003Y-88790566D01*
X118924005Y-88790566D01*
X118924008Y-88790568D01*
X118964609Y-88803760D01*
X119148631Y-88863553D01*
X119381903Y-88900500D01*
X119381908Y-88900500D01*
X119618097Y-88900500D01*
X119851368Y-88863553D01*
X120075992Y-88790568D01*
X120286433Y-88683343D01*
X120477510Y-88544517D01*
X120644517Y-88377510D01*
X120783343Y-88186433D01*
X120890568Y-87975992D01*
X120963553Y-87751368D01*
X120965430Y-87739516D01*
X121000500Y-87518097D01*
X121000500Y-87281902D01*
X120963553Y-87048631D01*
X120890566Y-86824003D01*
X120783342Y-86613566D01*
X120644517Y-86422490D01*
X120477510Y-86255483D01*
X120286433Y-86116657D01*
X120075996Y-86009433D01*
X119851368Y-85936446D01*
X119618097Y-85899500D01*
X119618092Y-85899500D01*
X119381908Y-85899500D01*
X119381903Y-85899500D01*
X119148631Y-85936446D01*
X118924003Y-86009433D01*
X118713566Y-86116657D01*
X118604550Y-86195862D01*
X118522490Y-86255483D01*
X118522488Y-86255485D01*
X118522487Y-86255485D01*
X118355485Y-86422487D01*
X118355485Y-86422488D01*
X118355483Y-86422490D01*
X118318267Y-86473713D01*
X118216657Y-86613566D01*
X118109433Y-86824003D01*
X118036446Y-87048631D01*
X117999500Y-87281902D01*
X114500500Y-87281902D01*
X114463553Y-87048631D01*
X114390566Y-86824003D01*
X114283342Y-86613566D01*
X114144517Y-86422490D01*
X113977510Y-86255483D01*
X113786433Y-86116657D01*
X113575996Y-86009433D01*
X113351368Y-85936446D01*
X113118097Y-85899500D01*
X113118092Y-85899500D01*
X112881908Y-85899500D01*
X112881903Y-85899500D01*
X112648631Y-85936446D01*
X112424003Y-86009433D01*
X112213566Y-86116657D01*
X112104550Y-86195862D01*
X112022490Y-86255483D01*
X112022488Y-86255485D01*
X112022487Y-86255485D01*
X111855485Y-86422487D01*
X111855485Y-86422488D01*
X111855483Y-86422490D01*
X111818267Y-86473713D01*
X111716657Y-86613566D01*
X111609433Y-86824003D01*
X111536446Y-87048631D01*
X111499500Y-87281902D01*
X109358064Y-87281902D01*
X109389227Y-87220742D01*
X109389227Y-87220741D01*
X109451557Y-87098412D01*
X109517246Y-86896243D01*
X109550500Y-86686287D01*
X109550500Y-86473713D01*
X109517246Y-86263757D01*
X109451557Y-86061588D01*
X109355051Y-85872184D01*
X109355049Y-85872181D01*
X109355048Y-85872179D01*
X109230109Y-85700213D01*
X109079786Y-85549890D01*
X108907820Y-85424951D01*
X108718414Y-85328444D01*
X108718413Y-85328443D01*
X108718412Y-85328443D01*
X108516243Y-85262754D01*
X108516241Y-85262753D01*
X108516240Y-85262753D01*
X108354957Y-85237208D01*
X108306287Y-85229500D01*
X108093713Y-85229500D01*
X108045042Y-85237208D01*
X107883760Y-85262753D01*
X107681585Y-85328444D01*
X107492179Y-85424951D01*
X107320213Y-85549890D01*
X107169890Y-85700213D01*
X107044951Y-85872179D01*
X106948444Y-86061585D01*
X106882753Y-86263760D01*
X106857613Y-86422487D01*
X106849500Y-86473713D01*
X104700500Y-86473713D01*
X104700500Y-82781947D01*
X111500000Y-82781947D01*
X111500000Y-83018052D01*
X111536934Y-83251247D01*
X111609897Y-83475802D01*
X111717087Y-83686174D01*
X111777338Y-83769104D01*
X111777340Y-83769105D01*
X112476212Y-83070233D01*
X112487482Y-83112292D01*
X112559890Y-83237708D01*
X112662292Y-83340110D01*
X112787708Y-83412518D01*
X112829765Y-83423787D01*
X112130893Y-84122658D01*
X112213828Y-84182914D01*
X112424197Y-84290102D01*
X112648752Y-84363065D01*
X112648751Y-84363065D01*
X112881948Y-84400000D01*
X113118052Y-84400000D01*
X113351247Y-84363065D01*
X113575802Y-84290102D01*
X113786163Y-84182918D01*
X113786169Y-84182914D01*
X113869104Y-84122658D01*
X113869105Y-84122658D01*
X113170233Y-83423787D01*
X113212292Y-83412518D01*
X113337708Y-83340110D01*
X113440110Y-83237708D01*
X113512518Y-83112292D01*
X113523787Y-83070234D01*
X114222658Y-83769105D01*
X114222658Y-83769104D01*
X114282914Y-83686169D01*
X114282918Y-83686163D01*
X114390102Y-83475802D01*
X114463065Y-83251247D01*
X114500000Y-83018052D01*
X114500000Y-82781947D01*
X118000000Y-82781947D01*
X118000000Y-83018052D01*
X118036934Y-83251247D01*
X118109897Y-83475802D01*
X118217087Y-83686174D01*
X118277338Y-83769104D01*
X118277340Y-83769105D01*
X118976212Y-83070233D01*
X118987482Y-83112292D01*
X119059890Y-83237708D01*
X119162292Y-83340110D01*
X119287708Y-83412518D01*
X119329765Y-83423787D01*
X118630893Y-84122658D01*
X118713828Y-84182914D01*
X118924197Y-84290102D01*
X119148752Y-84363065D01*
X119148751Y-84363065D01*
X119381948Y-84400000D01*
X119618052Y-84400000D01*
X119851247Y-84363065D01*
X120075802Y-84290102D01*
X120286163Y-84182918D01*
X120286169Y-84182914D01*
X120369104Y-84122658D01*
X120369105Y-84122658D01*
X119670233Y-83423787D01*
X119712292Y-83412518D01*
X119837708Y-83340110D01*
X119940110Y-83237708D01*
X120012518Y-83112292D01*
X120023787Y-83070234D01*
X120722658Y-83769105D01*
X120722658Y-83769104D01*
X120782914Y-83686169D01*
X120782918Y-83686163D01*
X120890102Y-83475802D01*
X120963065Y-83251247D01*
X121000000Y-83018052D01*
X121000000Y-82781947D01*
X120963065Y-82548752D01*
X120890102Y-82324197D01*
X120782914Y-82113828D01*
X120722658Y-82030894D01*
X120722658Y-82030893D01*
X120023787Y-82729765D01*
X120012518Y-82687708D01*
X119940110Y-82562292D01*
X119837708Y-82459890D01*
X119712292Y-82387482D01*
X119670234Y-82376212D01*
X120369105Y-81677340D01*
X120369104Y-81677338D01*
X120286174Y-81617087D01*
X120075802Y-81509897D01*
X119851247Y-81436934D01*
X119851248Y-81436934D01*
X119618052Y-81400000D01*
X119381948Y-81400000D01*
X119148752Y-81436934D01*
X118924197Y-81509897D01*
X118713830Y-81617084D01*
X118630894Y-81677340D01*
X119329766Y-82376212D01*
X119287708Y-82387482D01*
X119162292Y-82459890D01*
X119059890Y-82562292D01*
X118987482Y-82687708D01*
X118976212Y-82729766D01*
X118277340Y-82030894D01*
X118217084Y-82113830D01*
X118109897Y-82324197D01*
X118036934Y-82548752D01*
X118000000Y-82781947D01*
X114500000Y-82781947D01*
X114463065Y-82548752D01*
X114390102Y-82324197D01*
X114282914Y-82113828D01*
X114222658Y-82030894D01*
X114222658Y-82030893D01*
X113523787Y-82729765D01*
X113512518Y-82687708D01*
X113440110Y-82562292D01*
X113337708Y-82459890D01*
X113212292Y-82387482D01*
X113170234Y-82376212D01*
X113869105Y-81677340D01*
X113869104Y-81677339D01*
X113786174Y-81617087D01*
X113575802Y-81509897D01*
X113351247Y-81436934D01*
X113351248Y-81436934D01*
X113118052Y-81400000D01*
X112881948Y-81400000D01*
X112648752Y-81436934D01*
X112424197Y-81509897D01*
X112213830Y-81617084D01*
X112130894Y-81677340D01*
X112829766Y-82376212D01*
X112787708Y-82387482D01*
X112662292Y-82459890D01*
X112559890Y-82562292D01*
X112487482Y-82687708D01*
X112476212Y-82729766D01*
X111777340Y-82030894D01*
X111717084Y-82113830D01*
X111609897Y-82324197D01*
X111536934Y-82548752D01*
X111500000Y-82781947D01*
X104700500Y-82781947D01*
X104700500Y-80424500D01*
X104720185Y-80357461D01*
X104772989Y-80311706D01*
X104824500Y-80300500D01*
X129775500Y-80300500D01*
X129842539Y-80320185D01*
G37*
%TD.AperFunction*%
%TD*%
M02*
